<svg id="main-logo" data-name="Layer 1" xmlns="http://www.w3.org/2000/svg" viewBox="0 0 341.33 73"><defs><style>.fill-1{fill:#bf1e2d;}.fill-2{fill:#00293b;}</style></defs><title>type-1</title><path class="fill-1" d="M76.19,350.19A36.43,36.43,0,0,1,96.71,344,36.89,36.89,0,0,1,115,349c-.31,1-.74,1.88-1.08,2.83a34.39,34.39,0,0,0-13.71-4.65,33.35,33.35,0,0,0-21.1,4.65,33.72,33.72,0,0,0-14,16.88,33.32,33.32,0,0,0-1.2,19.53c.12.59.46,1.22.12,1.8a20.38,20.38,0,0,0-1.21,4.3,8.25,8.25,0,0,1-.84-2,36.46,36.46,0,0,1,14.2-42.22Zm36.51,10c1.61-4,3.21-8.1,4.86-12.13,3.62,2.43,7.21,4.89,10.82,7.33-1.21.43-2.45.76-3.66,1.16a49.59,49.59,0,0,1-1.43,25.64A46.11,46.11,0,0,1,106,404.66a37,37,0,0,1-4.54,2.76,39.55,39.55,0,0,0,7.74-8.38c5-7.39,7.26-16.31,7.81-25.13,1-.06,2.1-.09,3.15-.17-.85-1.3-2.08-2.29-3-3.54a79.46,79.46,0,0,0-.77-11c-1.27.2-2.45.74-3.7,1Zm14.73,1a36.49,36.49,0,0,1-46.36,52.4c1-.58,2.21-.85,3.26-1.41a1.38,1.38,0,0,1,1.39.06c.33.12.66.24,1,.34a33.53,33.53,0,0,0,38.39-14.7,33.37,33.37,0,0,0,2.9-28.61,3.42,3.42,0,0,1-.31-1.56,64.44,64.44,0,0,0-.27-6.53Z" transform="translate(-60 -344)"/><path class="fill-2" d="M101.77,373.72c2.58-3.53,5.07-7.13,7.72-10.61,2.85,3.28,5.84,6.44,8.65,9.76l-4,.21a44.15,44.15,0,0,1-7.78,24.61,40.22,40.22,0,0,1-20.17,14.6l.55.27c-.34-.1-.67-.22-1-.34,9-5.27,15.45-14.49,18.09-24.54,1.38.07,2.75.3,4.13.38-1-1.6-2.08-3.17-3.06-4.79a70.93,70.93,0,0,0,.82-9.77l-3.94.2Zm-3.25,2.57c.2-.26.53-.45.67,0,2.28,3.54,4.58,7.07,6.83,10.64-1.5-.15-3-.34-4.49-.46-2.11,6.95-5.53,13.66-10.74,18.81a26.24,26.24,0,0,1-10.48,6.38,11.05,11.05,0,0,1-9-.86,13.3,13.3,0,0,1-5.46-6.66,18.06,18.06,0,0,1,0-13.24,10.28,10.28,0,0,1,1.4-2.57,21.17,21.17,0,0,0-.75,12.15,10.26,10.26,0,0,0,5.17,6.67,9.51,9.51,0,0,0,7.7.08,19.42,19.42,0,0,0,8.12-6.77,45.71,45.71,0,0,0,6.76-14.79l-4.54-.48c2.93-3,5.89-5.92,8.83-8.88Z" transform="translate(-60 -344)"/><path class="fill-2" d="M148,406.84a.67.67,0,0,1-.75-.75V354.91a.67.67,0,0,1,.75-.75h11.59a11.91,11.91,0,0,1,9.26,3.8q3.46,3.8,3.46,10.2v24.68q0,6.4-3.46,10.2a11.91,11.91,0,0,1-9.26,3.8Zm4.59-5a.27.27,0,0,0,.3.3l6.62-.08a6.39,6.39,0,0,0,5.31-2.56,11.31,11.31,0,0,0,2.07-6.92V368.38a11.26,11.26,0,0,0-2-7,6.44,6.44,0,0,0-5.42-2.56h-6.62a.27.27,0,0,0-.3.3v42.75Z" transform="translate(-60 -344)"/><path class="fill-2" d="M183,406.84a.67.67,0,0,1-.75-.75V354.91a.67.67,0,0,1,.75-.75h3.84a.67.67,0,0,1,.75.75v51.17a.67.67,0,0,1-.75.75Z" transform="translate(-60 -344)"/><path class="fill-2" d="M207.38,406.84a.77.77,0,0,1-.83-.68L195.64,355v-.15a.6.6,0,0,1,.68-.68h4.21a.72.72,0,0,1,.83.68l8.13,42.07q.08.15.15.15c.05,0,.1-.05.15-.15l8.05-42.07a.77.77,0,0,1,.83-.68h4.06q.83,0,.68.83l-10.91,51.17a.72.72,0,0,1-.83.68Z" transform="translate(-60 -344)"/><path class="fill-2" d="M249.6,406.84a.77.77,0,0,1-.83-.68l-1.88-9.33a.25.25,0,0,0-.11-.23.46.46,0,0,0-.26-.08H232.89a.46.46,0,0,0-.26.08.25.25,0,0,0-.11.23l-2,9.33a.72.72,0,0,1-.83.68h-3.84a.63.63,0,0,1-.68-.83l11.36-51.17a.77.77,0,0,1,.83-.68h4.52a.72.72,0,0,1,.83.68L254.19,406v.15a.6.6,0,0,1-.68.68Zm-16-15q0,.3.23.3h11.82q.23,0,.23-.3l-5.95-29q-.08-.23-.15-.23t-.15.23l-6,29Z" transform="translate(-60 -344)"/><path class="fill-2" d="M286.47,406.84a.77.77,0,0,1-.83-.68l-1.88-9.33a.25.25,0,0,0-.11-.23.46.46,0,0,0-.26-.08H269.76a.46.46,0,0,0-.26.08.25.25,0,0,0-.11.23l-2,9.33a.72.72,0,0,1-.83.68h-3.84a.63.63,0,0,1-.68-.83l11.36-51.17a.77.77,0,0,1,.83-.68h4.52a.72.72,0,0,1,.83.68L291.06,406v.15a.6.6,0,0,1-.68.68Zm-16-15q0,.3.23.3h11.82q.23,0,.23-.3l-5.95-29q-.08-.23-.15-.23t-.15.23l-6,29Z" transform="translate(-60 -344)"/><path class="fill-1" d="M330.46,362.43a.9.9,0,0,1-.9.9H313.85a.33.33,0,0,0-.38.38v11.87a.33.33,0,0,0,.38.38h9a.9.9,0,0,1,.9.9v7.29a.9.9,0,0,1-.9.9h-9a.33.33,0,0,0-.38.38v11.95a.33.33,0,0,0,.38.38h15.71a.9.9,0,0,1,.9.9v7.29a.9.9,0,0,1-.9.9H303.78a.9.9,0,0,1-.9-.9v-50.8a.9.9,0,0,1,.9-.9h25.78a.9.9,0,0,1,.9.9v7.29Z" transform="translate(-60 -344)"/><path class="fill-1" d="M356.54,406.84a1,1,0,0,1-1.05-.75l-5.79-20.74q-.15-.3-.38-.3h-2.56a.33.33,0,0,0-.38.38v20.52a.9.9,0,0,1-.9.9H336.7a.9.9,0,0,1-.9-.9V355.06a.9.9,0,0,1,.9-.9h15.18a13.34,13.34,0,0,1,12.36,7.67A18.39,18.39,0,0,1,366,370a17.26,17.26,0,0,1-1.69,7.82,13.32,13.32,0,0,1-4.7,5.34.57.57,0,0,0-.23.19.25.25,0,0,0,0,.26l6.91,22.17.08.3q0,.75-.83.75Zm-9.77-43.51a.33.33,0,0,0-.38.38v12.78a.33.33,0,0,0,.38.38h3.38a4.66,4.66,0,0,0,3.79-1.8,7.52,7.52,0,0,0,1.47-4.88,7.78,7.78,0,0,0-1.47-5,4.66,4.66,0,0,0-3.79-1.8Z" transform="translate(-60 -344)"/><path class="fill-1" d="M387.2,354.16a13.29,13.29,0,0,1,12.36,7.7,18.81,18.81,0,0,1,1.77,8.3q0,7-3.76,11.2a12.57,12.57,0,0,1-9.84,4.21h-5.64a.33.33,0,0,0-.38.38v20a.9.9,0,0,1-.9.9H372a.9.9,0,0,1-.9-.9V355.06a.9.9,0,0,1,.9-.9Zm-1.8,23.15a4.7,4.7,0,0,0,3.87-1.84,7.94,7.94,0,0,0,1.47-5.07,8.23,8.23,0,0,0-1.47-5.19,4.67,4.67,0,0,0-3.87-1.88h-3.31a.33.33,0,0,0-.38.38v13.23a.33.33,0,0,0,.38.38Z" transform="translate(-60 -344)"/></svg>
