<?xml version="1.0" encoding="UTF-8"?>
<!DOCTYPE svg PUBLIC "-//W3C//DTD SVG 1.1//EN" "http://www.w3.org/Graphics/SVG/1.1/DTD/svg11.dtd">
<!-- Creator: CorelDRAW 2018 (64-Bit Evaluation Version) -->
<svg xmlns="http://www.w3.org/2000/svg" xml:space="preserve" width="302px" height="55px" version="1.1" shape-rendering="geometricPrecision" text-rendering="geometricPrecision" image-rendering="optimizeQuality" fill-rule="evenodd" clip-rule="evenodd"
viewBox="0 0 29.32 5.35"
 xmlns:xlink="http://www.w3.org/1999/xlink">
 <g id="Layer_x0020_1">
  <metadata id="CorelCorpID_0Corel-Layer"/>
  <g id="_2583907740576">
   <g>
    <path fill="#26293A" fill-rule="nonzero" d="M8.91 3.93c0,0.06 -0.01,0.1 -0.03,0.12 -0.02,0.03 -0.06,0.05 -0.1,0.05 -0.05,0 -0.08,-0.02 -0.11,-0.05 -0.02,-0.03 -0.03,-0.07 -0.03,-0.12l0 -2.52c0,-0.05 0.01,-0.09 0.03,-0.12 0.03,-0.02 0.06,-0.04 0.11,-0.04 0.04,0 0.08,0.02 0.1,0.04 0.02,0.03 0.03,0.07 0.03,0.12l0 2.52z"/>
    <path id="1" fill="#26293A" fill-rule="nonzero" d="M9.76 3.93c0,0.05 -0.01,0.09 -0.03,0.12 -0.02,0.02 -0.05,0.04 -0.09,0.04 -0.05,0 -0.08,-0.02 -0.1,-0.04 -0.02,-0.03 -0.04,-0.07 -0.04,-0.12l0 -1.78c0,-0.06 0.02,-0.1 0.04,-0.13 0.02,-0.03 0.06,-0.04 0.1,-0.04 0.04,0 0.07,0.01 0.09,0.04 0.02,0.03 0.03,0.07 0.03,0.13l0 0.14c0.1,-0.11 0.2,-0.19 0.3,-0.25 0.11,-0.05 0.23,-0.08 0.37,-0.08 0.25,0 0.43,0.07 0.56,0.21 0.12,0.14 0.19,0.35 0.19,0.61l0 1.15c0,0.05 -0.01,0.09 -0.04,0.12 -0.02,0.02 -0.05,0.04 -0.09,0.04 -0.04,0 -0.07,-0.02 -0.1,-0.04 -0.02,-0.03 -0.03,-0.07 -0.03,-0.12l0 -1.03c0,-0.26 -0.04,-0.44 -0.12,-0.55 -0.09,-0.1 -0.22,-0.16 -0.41,-0.16 -0.21,0 -0.37,0.08 -0.47,0.23 -0.1,0.14 -0.16,0.37 -0.16,0.67l0 0.84z"/>
    <path id="2" fill="#26293A" fill-rule="nonzero" d="M12 3.93c0,0.05 -0.01,0.09 -0.03,0.12 -0.02,0.02 -0.05,0.04 -0.09,0.04 -0.05,0 -0.08,-0.02 -0.1,-0.04 -0.02,-0.03 -0.04,-0.07 -0.04,-0.12l0 -1.78c0,-0.06 0.02,-0.1 0.04,-0.13 0.02,-0.03 0.06,-0.04 0.1,-0.04 0.04,0 0.07,0.01 0.09,0.04 0.02,0.03 0.03,0.07 0.03,0.13l0 0.14c0.1,-0.11 0.2,-0.19 0.3,-0.25 0.11,-0.05 0.23,-0.08 0.37,-0.08 0.25,0 0.43,0.07 0.56,0.21 0.12,0.14 0.19,0.35 0.19,0.61l0 1.15c0,0.05 -0.01,0.09 -0.04,0.12 -0.02,0.02 -0.05,0.04 -0.09,0.04 -0.04,0 -0.07,-0.02 -0.1,-0.04 -0.02,-0.03 -0.03,-0.07 -0.03,-0.12l0 -1.03c0,-0.26 -0.04,-0.44 -0.12,-0.55 -0.09,-0.1 -0.22,-0.16 -0.41,-0.16 -0.21,0 -0.37,0.08 -0.47,0.23 -0.1,0.14 -0.16,0.37 -0.16,0.67l0 0.84z"/>
    <path id="3" fill="#0092E0" fill-rule="nonzero" d="M14.82 3.93c0,0.06 -0.01,0.1 -0.04,0.12 -0.02,0.03 -0.05,0.05 -0.1,0.05 -0.04,0 -0.08,-0.02 -0.1,-0.05 -0.03,-0.03 -0.04,-0.07 -0.04,-0.12l0 -2.41 -0.66 0c-0.05,0 -0.09,-0.01 -0.12,-0.03 -0.03,-0.02 -0.04,-0.05 -0.04,-0.09 0,-0.04 0.01,-0.08 0.04,-0.1 0.03,-0.02 0.07,-0.03 0.12,-0.03l1.6 0c0.05,0 0.1,0.01 0.12,0.03 0.03,0.02 0.05,0.05 0.05,0.09 0,0.05 -0.02,0.08 -0.05,0.1 -0.03,0.02 -0.07,0.03 -0.12,0.03l-0.66 0 0 2.41z"/>
    <path id="4" fill="#0092E0" fill-rule="nonzero" d="M15.75 2.78l1.32 0c-0.01,-0.19 -0.07,-0.33 -0.19,-0.44 -0.12,-0.11 -0.28,-0.17 -0.47,-0.17 -0.19,0 -0.34,0.06 -0.46,0.17 -0.12,0.11 -0.19,0.25 -0.2,0.44zm1.38 1.06c0.06,0 0.1,0.01 0.13,0.03 0.03,0.02 0.04,0.05 0.04,0.09 0,0.03 -0.01,0.06 -0.04,0.08 -0.03,0.02 -0.07,0.03 -0.13,0.03l-0.41 0c-0.21,0 -0.38,-0.01 -0.51,-0.04 -0.13,-0.03 -0.24,-0.07 -0.34,-0.14 -0.13,-0.08 -0.24,-0.2 -0.31,-0.36 -0.08,-0.16 -0.12,-0.33 -0.12,-0.52 0,-0.3 0.1,-0.55 0.28,-0.75 0.19,-0.2 0.42,-0.3 0.71,-0.3 0.25,0 0.47,0.08 0.65,0.25 0.17,0.17 0.26,0.37 0.26,0.6l0 0.08c0,0.04 -0.01,0.06 -0.03,0.08 -0.02,0.02 -0.05,0.03 -0.09,0.03l-1.49 0 0 0.01c0,0.3 0.07,0.51 0.22,0.64 0.15,0.13 0.4,0.19 0.75,0.19l0.43 0z"/>
    <path id="5" fill="#0092E0" fill-rule="nonzero" d="M19.22 2c0.06,0 0.1,0.01 0.13,0.02 0.02,0.02 0.04,0.05 0.04,0.09 0,0.04 -0.02,0.07 -0.05,0.09 -0.02,0.02 -0.07,0.03 -0.12,0.03l-0.56 0c-0.23,0 -0.41,0.06 -0.55,0.18 -0.13,0.12 -0.19,0.28 -0.19,0.48 0,0.28 0.1,0.51 0.3,0.69 0.2,0.17 0.47,0.26 0.81,0.26l0.28 0c0.05,0 0.09,0.01 0.12,0.03 0.03,0.02 0.05,0.05 0.05,0.09 0,0.03 -0.02,0.06 -0.05,0.08 -0.02,0.02 -0.07,0.03 -0.12,0.03l-0.23 0c-0.19,0 -0.34,0 -0.44,-0.02 -0.11,-0.02 -0.2,-0.05 -0.29,-0.09 -0.22,-0.09 -0.39,-0.23 -0.52,-0.43 -0.13,-0.19 -0.2,-0.41 -0.2,-0.64 0,-0.28 0.09,-0.5 0.26,-0.66 0.17,-0.15 0.41,-0.23 0.72,-0.23l0.61 0z"/>
    <path id="6" fill="#0092E0" fill-rule="nonzero" d="M20.09 3.93c0,0.05 -0.01,0.09 -0.03,0.12 -0.02,0.02 -0.05,0.04 -0.09,0.04 -0.05,0 -0.08,-0.02 -0.1,-0.04 -0.02,-0.03 -0.04,-0.07 -0.04,-0.12l0 -2.5c0,-0.05 0.02,-0.09 0.04,-0.12 0.02,-0.03 0.05,-0.04 0.1,-0.04 0.04,0 0.07,0.01 0.09,0.04 0.02,0.03 0.03,0.07 0.03,0.12l0 0.86c0.1,-0.11 0.2,-0.19 0.3,-0.25 0.11,-0.05 0.23,-0.08 0.37,-0.08 0.25,0 0.43,0.07 0.56,0.21 0.12,0.14 0.19,0.35 0.19,0.61l0 1.15c0,0.05 -0.01,0.09 -0.03,0.12 -0.03,0.02 -0.06,0.04 -0.1,0.04 -0.04,0 -0.07,-0.02 -0.1,-0.04 -0.02,-0.03 -0.03,-0.07 -0.03,-0.12l0 -1.03c0,-0.26 -0.04,-0.44 -0.12,-0.55 -0.09,-0.1 -0.22,-0.16 -0.41,-0.16 -0.21,0 -0.37,0.08 -0.47,0.23 -0.1,0.14 -0.16,0.37 -0.16,0.67l0 0.84z"/>
    <path fill="#26293A" fill-rule="nonzero" d="M22.8 3.1l0 0.95 -0.62 0 0 -2.75 0.97 0c0.69,0 1.04,0.29 1.04,0.87 0,0.28 -0.1,0.5 -0.3,0.67 -0.2,0.18 -0.47,0.26 -0.8,0.26l-0.29 0zm0 -1.33l0 0.86 0.24 0c0.33,0 0.49,-0.14 0.49,-0.43 0,-0.29 -0.16,-0.43 -0.49,-0.43l-0.24 0z"/>
    <path id="1" fill="#26293A" fill-rule="nonzero" d="M25.75 4.1c-0.39,0 -0.71,-0.13 -0.96,-0.39 -0.25,-0.26 -0.37,-0.59 -0.37,-1 0,-0.44 0.12,-0.79 0.37,-1.05 0.26,-0.27 0.59,-0.41 1.01,-0.41 0.39,0 0.71,0.13 0.95,0.39 0.24,0.25 0.36,0.59 0.36,1.01 0,0.44 -0.12,0.78 -0.38,1.05 -0.25,0.26 -0.57,0.4 -0.98,0.4zm0.03 -2.31c-0.22,0 -0.39,0.08 -0.52,0.24 -0.13,0.16 -0.19,0.38 -0.19,0.65 0,0.27 0.06,0.48 0.19,0.64 0.13,0.16 0.3,0.24 0.5,0.24 0.22,0 0.39,-0.08 0.51,-0.23 0.13,-0.15 0.19,-0.37 0.19,-0.64 0,-0.29 -0.06,-0.51 -0.18,-0.67 -0.12,-0.16 -0.29,-0.23 -0.5,-0.23z"/>
    <path id="2" fill="#26293A" fill-rule="nonzero" d="M27.44 3.94l0 -0.61c0.11,0.09 0.23,0.16 0.36,0.21 0.13,0.05 0.27,0.07 0.4,0.07 0.08,0 0.14,-0.01 0.2,-0.02 0.06,-0.02 0.11,-0.04 0.15,-0.06 0.04,-0.03 0.07,-0.06 0.09,-0.09 0.01,-0.03 0.02,-0.07 0.02,-0.11 0,-0.05 -0.01,-0.1 -0.04,-0.14 -0.03,-0.05 -0.07,-0.08 -0.13,-0.12 -0.05,-0.04 -0.11,-0.07 -0.19,-0.1 -0.07,-0.04 -0.15,-0.07 -0.23,-0.11 -0.22,-0.08 -0.38,-0.19 -0.48,-0.32 -0.11,-0.13 -0.16,-0.29 -0.16,-0.47 0,-0.14 0.03,-0.27 0.09,-0.37 0.05,-0.1 0.13,-0.19 0.23,-0.25 0.1,-0.07 0.21,-0.12 0.34,-0.15 0.13,-0.03 0.27,-0.05 0.42,-0.05 0.14,0 0.27,0.01 0.38,0.03 0.11,0.02 0.21,0.04 0.31,0.08l0 0.57c-0.05,-0.03 -0.1,-0.06 -0.16,-0.08 -0.05,-0.03 -0.11,-0.05 -0.16,-0.06 -0.06,-0.02 -0.12,-0.03 -0.17,-0.04 -0.06,-0.01 -0.12,-0.01 -0.17,-0.01 -0.07,0 -0.13,0.01 -0.19,0.02 -0.06,0.01 -0.1,0.03 -0.14,0.06 -0.04,0.02 -0.07,0.05 -0.1,0.08 -0.02,0.04 -0.03,0.08 -0.03,0.12 0,0.04 0.01,0.08 0.04,0.12 0.02,0.04 0.06,0.07 0.1,0.1 0.05,0.04 0.1,0.07 0.16,0.1 0.07,0.03 0.14,0.06 0.22,0.1 0.11,0.04 0.21,0.09 0.3,0.14 0.08,0.06 0.16,0.11 0.22,0.18 0.06,0.06 0.11,0.14 0.15,0.22 0.03,0.09 0.05,0.18 0.05,0.29 0,0.16 -0.03,0.29 -0.09,0.39 -0.06,0.11 -0.14,0.19 -0.24,0.25 -0.1,0.07 -0.21,0.12 -0.35,0.14 -0.13,0.03 -0.27,0.05 -0.42,0.05 -0.15,0 -0.29,-0.02 -0.43,-0.04 -0.13,-0.03 -0.25,-0.07 -0.35,-0.12z"/>
   </g>
   <g>
    <path fill="#0092E0" fill-rule="nonzero" d="M4.81 0.02l-0.09 0.75 0 0 -0.03 0 -0.02 0 -0.03 0 -0.03 -0.01 -0.02 0 -0.03 0 -0.03 0 -0.02 0 -0.03 0 -0.02 0.01 -0.03 0 -0.03 0 -0.02 0 -0.03 0.01 -0.03 0 -0.02 0 -0.03 0.01 -0.02 0 -0.03 0.01 -0.03 0 -0.02 0.01 -0.03 0.01 -0.02 0.01 -0.03 0 -0.02 0.01 -0.03 0.01 -0.02 0.01 -0.02 0.01 -0.03 0.01 -0.02 0.01 -0.02 0.01 -0.03 0.01 -0.35 -0.67 0.04 -0.02 0.04 -0.02 0.03 -0.02 0.04 -0.01 0.04 -0.02 0.04 -0.01 0.04 -0.02 0.03 -0.01 0.04 -0.01 0.04 -0.01 0.04 -0.01 0.04 -0.02 0.04 0 0.04 -0.01 0.04 -0.01 0.04 -0.01 0.04 0 0.04 -0.01 0.04 -0.01 0.04 0 0.04 0 0.04 -0.01 0.04 0 0.04 0 0.04 0 0.04 0 0.04 0 0.04 0 0.04 0.01 0.04 0 0.04 0 0.04 0.01 0 0zm-0.09 0.75l0 0 0.01 0 -0.01 0zm1.49 0.02l-0.58 0.49 -0.01 -0.01 -0.02 -0.02 -0.02 -0.03 -0.02 -0.02 -0.02 -0.02 -0.03 -0.03 -0.02 -0.02 -0.03 -0.02 -0.02 -0.02 -0.03 -0.02 -0.02 -0.02 -0.03 -0.02 -0.03 -0.02 -0.03 -0.02 -0.02 -0.02 -0.03 -0.02 -0.03 -0.01 -0.03 -0.02 -0.03 -0.01 -0.03 -0.02 -0.03 -0.01 -0.03 -0.01 -0.03 -0.02 -0.03 -0.01 -0.03 -0.01 -0.04 -0.01 -0.03 -0.01 -0.03 -0.01 -0.03 0 -0.03 -0.01 -0.04 -0.01 -0.03 0 -0.03 -0.01 0.09 -0.75 0.05 0 0.05 0.01 0.06 0.01 0.05 0.01 0.05 0.01 0.05 0.02 0.04 0.01 0.05 0.02 0.05 0.01 0.05 0.02 0.05 0.02 0.04 0.02 0.05 0.02 0.05 0.02 0.04 0.03 0.05 0.02 0.04 0.02 0.05 0.03 0.04 0.03 0.04 0.03 0.04 0.03 0.04 0.03 0.04 0.03 0.04 0.03 0.04 0.03 0.04 0.04 0.04 0.03 0.04 0.04 0.03 0.03 0.04 0.04 0.03 0.04 0.03 0.04 0 0zm-0.58 0.49l-0.01 -0.01 0 0 0.01 0.01zm0.78 0.4l-0.18 0.74 -0.29 -0.34 0 -0.03 0 -0.03 0 -0.03 -0.01 -0.02 0 -0.03 -0.01 -0.03 0 -0.02 -0.01 -0.03 0 -0.03 -0.01 -0.02 -0.01 -0.03 -0.01 -0.03 0 -0.02 -0.01 -0.03 -0.01 -0.02 -0.01 -0.03 -0.01 -0.03 -0.01 -0.02 -0.02 -0.03 -0.01 -0.02 -0.01 -0.03 -0.01 -0.02 -0.02 -0.02 -0.01 -0.03 -0.01 -0.02 -0.02 -0.02 -0.01 -0.03 -0.02 -0.02 -0.01 -0.02 -0.02 -0.02 -0.02 -0.02 -0.01 -0.02 0.58 -0.49 0.03 0.03 0.03 0.03 0.02 0.04 0.03 0.03 0.02 0.04 0.02 0.03 0.03 0.04 0.02 0.04 0.02 0.03 0.02 0.04 0.02 0.04 0.02 0.03 0.02 0.04 0.01 0.04 0.02 0.04 0.02 0.04 0.01 0.04 0.02 0.04 0.01 0.04 0.01 0.04 0.01 0.04 0.02 0.04 0.01 0.04 0.01 0.04 0.01 0.04 0 0.04 0.01 0.05 0.01 0.04 0 0.04 0.01 0.04 0 0.04 0 0.05 -0.29 -0.35zm-0.18 0.74l-0.27 -0.06 -0.02 -0.28 0.29 0.34zm1 -0.24l-0.57 0.5 -0.01 0 -0.01 -0.01 -0.01 -0.02 -0.01 -0.01 -0.01 -0.01 -0.01 -0.01 -0.01 -0.01 -0.01 -0.01 -0.01 -0.01 -0.02 -0.01 -0.01 -0.01 -0.01 -0.01 -0.01 -0.01 -0.02 -0.01 -0.01 -0.01 -0.01 0 -0.02 -0.01 -0.01 -0.01 -0.01 -0.01 -0.02 -0.01 -0.01 0 -0.01 -0.01 -0.02 -0.01 -0.01 0 -0.02 -0.01 -0.01 -0.01 -0.02 0 -0.01 -0.01 -0.02 0 -0.01 -0.01 -0.02 0 -0.01 0 -0.02 -0.01 0.18 -0.74 0.03 0.01 0.03 0.01 0.03 0 0.03 0.01 0.03 0.01 0.03 0.01 0.03 0.01 0.03 0.02 0.02 0.01 0.03 0.01 0.03 0.01 0.03 0.02 0.02 0.01 0.03 0.02 0.03 0.01 0.02 0.02 0.03 0.01 0.02 0.02 0.03 0.02 0.02 0.01 0.03 0.02 0.02 0.02 0.03 0.02 0.02 0.02 0.02 0.02 0.03 0.02 0.02 0.02 0.02 0.02 0.02 0.02 0.02 0.03 0.02 0.02 0.02 0.02 0 0zm-0.57 0.5l-0.01 0 0 0 0.01 0zm0.95 0.51l-0.76 0.02 0 -0.02 0 -0.01 0 -0.02 -0.01 -0.02 0 -0.01 0 -0.02 0 -0.02 0 -0.02 -0.01 -0.01 0 -0.02 0 -0.02 -0.01 -0.01 0 -0.02 -0.01 -0.02 0 -0.02 -0.01 -0.01 0 -0.02 -0.01 -0.02 -0.01 -0.01 0 -0.02 -0.01 -0.01 -0.01 -0.02 -0.01 -0.02 0 -0.01 -0.01 -0.02 -0.01 -0.01 -0.01 -0.02 -0.01 -0.01 -0.01 -0.02 -0.01 -0.01 -0.01 -0.01 -0.01 -0.02 -0.01 -0.01 0.57 -0.5 0.02 0.03 0.03 0.02 0.02 0.03 0.02 0.03 0.02 0.03 0.02 0.03 0.02 0.03 0.01 0.03 0.02 0.03 0.02 0.03 0.01 0.03 0.02 0.03 0.01 0.03 0.02 0.03 0.01 0.03 0.01 0.04 0.01 0.03 0.02 0.03 0.01 0.04 0.01 0.03 0 0.03 0.01 0.04 0.01 0.03 0.01 0.04 0 0.03 0.01 0.03 0 0.04 0 0.03 0.01 0.04 0 0.03 0 0.04 0 0.04 0 -0.02zm-0.76 0.02l0 -0.01 0 -0.01 0 0.02zm0.45 0.92l-0.61 -0.46 0 0 0.01 -0.01 0.01 -0.01 0.01 -0.01 0.01 -0.02 0 -0.01 0.01 -0.02 0.01 -0.01 0.01 -0.01 0 -0.02 0.01 -0.01 0.01 -0.02 0 -0.01 0.01 -0.02 0.01 -0.01 0 -0.02 0.01 -0.01 0 -0.01 0.01 -0.02 0 -0.01 0 -0.02 0.01 -0.02 0 -0.01 0 -0.02 0.01 -0.01 0 -0.02 0 -0.01 0 -0.02 0 -0.01 0 -0.02 0.01 -0.01 0 -0.02 0 -0.01 0.76 -0.02 0 0.04 0 0.03 0 0.03 -0.01 0.03 0 0.03 0 0.03 -0.01 0.03 0 0.04 0 0.03 -0.01 0.03 -0.01 0.03 0 0.03 -0.01 0.03 -0.01 0.03 -0.01 0.03 -0.01 0.03 -0.01 0.03 -0.01 0.03 -0.01 0.03 -0.01 0.03 -0.01 0.02 -0.02 0.03 -0.01 0.03 -0.01 0.03 -0.02 0.03 -0.01 0.02 -0.02 0.03 -0.02 0.03 -0.01 0.02 -0.02 0.03 -0.02 0.02 -0.02 0.03 0 0zm-0.66 0.51l-0.29 -0.7 0 0 0.01 -0.01 0.02 0 0.01 -0.01 0.01 0 0.01 -0.01 0.01 -0.01 0.02 0 0.01 -0.01 0.01 -0.01 0.01 0 0.01 -0.01 0.01 -0.01 0.02 -0.01 0.01 0 0.01 -0.01 0.01 -0.01 0.01 -0.01 0.01 -0.01 0.01 -0.01 0.01 0 0.01 -0.01 0.01 -0.01 0.01 -0.01 0.01 -0.01 0.01 -0.01 0.01 -0.01 0.01 -0.01 0.01 -0.01 0.01 -0.01 0 -0.01 0.01 -0.02 0.01 -0.01 0.61 0.46 -0.01 0.02 -0.02 0.02 -0.02 0.02 -0.01 0.02 -0.02 0.02 -0.02 0.02 -0.02 0.02 -0.02 0.02 -0.01 0.02 -0.02 0.02 -0.02 0.02 -0.02 0.01 -0.02 0.02 -0.02 0.02 -0.02 0.02 -0.02 0.01 -0.02 0.02 -0.02 0.01 -0.03 0.02 -0.02 0.01 -0.02 0.02 -0.02 0.01 -0.03 0.02 -0.02 0.01 -0.02 0.01 -0.03 0.02 -0.02 0.01 -0.02 0.01 -0.03 0.01 -0.02 0.01 -0.03 0.02 -0.02 0.01 0 -0.01zm-0.29 -0.7l0 0 0 0 0 0zm-0.49 0.5l-0.67 -0.37 0.5 -0.15 0.02 0 0.02 0.01 0.02 0.01 0.02 0.01 0.02 0.01 0.02 0 0.02 0.01 0.02 0 0.02 0.01 0.02 0 0.02 0.01 0.02 0 0.03 0 0.02 0 0.02 0.01 0.02 0 0.02 0 0.02 0 0.02 0 0.03 0 0.02 -0.01 0.02 0 0.02 0 0.02 0 0.02 -0.01 0.02 0 0.02 -0.01 0.02 0 0.02 -0.01 0.02 -0.01 0.02 0 0.02 -0.01 0.29 0.7 -0.04 0.02 -0.04 0.01 -0.04 0.02 -0.04 0.01 -0.04 0.01 -0.04 0.01 -0.04 0.01 -0.04 0.01 -0.04 0 -0.04 0.01 -0.04 0 -0.04 0.01 -0.04 0 -0.05 0 -0.04 0 -0.04 0 -0.04 0 -0.04 -0.01 -0.04 0 -0.04 -0.01 -0.04 0 -0.04 -0.01 -0.04 -0.01 -0.04 -0.01 -0.04 -0.01 -0.04 -0.01 -0.04 -0.01 -0.04 -0.02 -0.04 -0.01 -0.04 -0.02 -0.04 -0.01 -0.03 -0.02 0.5 -0.16zm-0.67 -0.37l0.18 -0.32 0.32 0.17 -0.5 0.15zm-0.14 1.06l-0.26 -0.71 0 -0.01 0.02 0 0.01 -0.01 0.02 0 0.01 -0.01 0.02 -0.01 0.01 -0.01 0.02 0 0.01 -0.01 0.01 -0.01 0.02 -0.01 0.01 -0.01 0.02 -0.01 0.01 -0.01 0.01 -0.01 0.02 -0.01 0.01 -0.01 0.01 -0.01 0.02 -0.01 0.01 -0.01 0.01 -0.02 0.01 -0.01 0.01 -0.01 0.01 -0.01 0.02 -0.02 0.01 -0.01 0.01 -0.01 0.01 -0.02 0.01 -0.01 0 -0.01 0.01 -0.02 0.01 -0.01 0.01 -0.02 0.67 0.37 -0.02 0.03 -0.02 0.03 -0.01 0.03 -0.02 0.03 -0.02 0.03 -0.02 0.02 -0.02 0.03 -0.03 0.03 -0.02 0.02 -0.02 0.03 -0.02 0.02 -0.03 0.03 -0.02 0.02 -0.02 0.03 -0.03 0.02 -0.03 0.02 -0.02 0.02 -0.03 0.02 -0.02 0.02 -0.03 0.02 -0.03 0.02 -0.03 0.02 -0.03 0.02 -0.03 0.02 -0.03 0.01 -0.03 0.02 -0.03 0.02 -0.03 0.01 -0.03 0.01 -0.03 0.02 -0.03 0.01 -0.03 0.01 0 0zm-0.26 -0.71l0 -0.01 0 0 0 0.01zm-0.44 0.79l0.09 -0.76 0 0 0.01 0 0.01 0 0.01 0 0.02 0.01 0.01 0 0.01 0 0.01 0 0.01 0 0.01 0 0.02 0 0.01 0 0.01 0 0.01 0 0.01 -0.01 0.01 0 0.01 0 0.01 0 0.01 0 0.01 0 0.02 0 0.01 0 0.01 -0.01 0.01 0 0.01 0 0.01 0 0.01 -0.01 0.01 0 0.01 0 0.01 0 0.01 -0.01 0.01 0 0.01 0 0.26 0.71 -0.02 0.01 -0.02 0.01 -0.02 0 -0.03 0.01 -0.02 0.01 -0.02 0 -0.02 0.01 -0.02 0 -0.03 0.01 -0.02 0 -0.02 0.01 -0.02 0 -0.02 0 -0.02 0.01 -0.03 0 -0.02 0 -0.02 0 -0.02 0.01 -0.02 0 -0.02 0 -0.03 0 -0.02 0 -0.02 0 -0.02 0 -0.02 0 -0.02 0 -0.03 0 -0.02 0 -0.02 0 -0.02 -0.01 -0.02 0 -0.02 0 -0.01 0zm0.01 0l-0.01 0 0.01 0 0 0zm-0.35 -0.44l-0.55 -0.52 0.55 -0.01 0.01 0.01 0.01 0.01 0.01 0.01 0.01 0.01 0.02 0.01 0.01 0.01 0.01 0.01 0.01 0.01 0.02 0.01 0.01 0.01 0.01 0.01 0.01 0 0.02 0.01 0.01 0.01 0.01 0.01 0.02 0 0.01 0.01 0.02 0.01 0.01 0 0.02 0.01 0.01 0 0.01 0.01 0.02 0 0.01 0.01 0.02 0 0.01 0.01 0.02 0 0.01 0 0.02 0.01 0.01 0 0.02 0 0.01 0 -0.09 0.76 -0.03 0 -0.03 -0.01 -0.03 0 -0.03 -0.01 -0.03 -0.01 -0.03 0 -0.03 -0.01 -0.03 -0.01 -0.03 -0.01 -0.03 -0.01 -0.03 -0.01 -0.03 -0.01 -0.03 -0.01 -0.03 -0.01 -0.03 -0.02 -0.03 -0.01 -0.02 -0.01 -0.03 -0.02 -0.03 -0.01 -0.03 -0.02 -0.02 -0.02 -0.03 -0.01 -0.03 -0.02 -0.02 -0.02 -0.03 -0.02 -0.02 -0.02 -0.03 -0.02 -0.02 -0.02 -0.02 -0.02 -0.03 -0.02 -0.02 -0.02 -0.02 -0.02 0.54 -0.01zm-0.55 -0.52l0.27 -0.29 0.28 0.28 -0.55 0.01zm-0.59 1.09l-0.08 -0.76 0 0 0.02 -0.01 0.03 0 0.02 0 0.02 -0.01 0.03 0 0.02 -0.01 0.02 0 0.03 -0.01 0.02 -0.01 0.02 0 0.02 -0.01 0.03 -0.01 0.02 -0.01 0.02 -0.01 0.02 -0.01 0.03 -0.01 0.02 -0.01 0.02 -0.01 0.02 -0.01 0.02 -0.02 0.02 -0.01 0.02 -0.01 0.02 -0.02 0.02 -0.01 0.02 -0.01 0.02 -0.02 0.02 -0.01 0.01 -0.02 0.02 -0.01 0.02 -0.02 0.02 -0.02 0.01 -0.01 0.55 0.52 -0.02 0.03 -0.03 0.03 -0.03 0.03 -0.03 0.03 -0.03 0.02 -0.04 0.03 -0.03 0.02 -0.03 0.03 -0.03 0.02 -0.04 0.02 -0.03 0.03 -0.04 0.02 -0.03 0.02 -0.04 0.02 -0.03 0.02 -0.04 0.01 -0.03 0.02 -0.04 0.02 -0.04 0.01 -0.04 0.02 -0.03 0.01 -0.04 0.02 -0.04 0.01 -0.04 0.01 -0.04 0.01 -0.04 0.01 -0.04 0.01 -0.04 0.01 -0.04 0.01 -0.04 0.01 -0.04 0 -0.04 0.01 0 0zm-0.08 -0.76l0 0 0.01 0 -0.01 0zm-1.08 0.51l0.39 -0.66 0 0 0.02 0.01 0.02 0.01 0.02 0.01 0.02 0.01 0.02 0.01 0.02 0.01 0.02 0.01 0.02 0.01 0.02 0.01 0.02 0.01 0.02 0 0.02 0.01 0.02 0 0.03 0.01 0.02 0.01 0.02 0 0.02 0 0.02 0.01 0.03 0 0.02 0.01 0.02 0 0.02 0 0.03 0 0.02 0 0.02 0 0.02 0 0.03 0 0.02 0 0.02 0 0.02 0 0.03 0 0.02 0 0.08 0.76 -0.03 0 -0.04 0 -0.04 0 -0.04 0.01 -0.03 0 -0.04 0 -0.04 0 -0.04 0 -0.04 -0.01 -0.03 0 -0.04 0 -0.04 -0.01 -0.04 0 -0.03 -0.01 -0.04 -0.01 -0.04 0 -0.03 -0.01 -0.04 -0.01 -0.04 -0.01 -0.03 -0.01 -0.04 -0.01 -0.03 -0.01 -0.04 -0.02 -0.04 -0.01 -0.03 -0.01 -0.04 -0.02 -0.03 -0.01 -0.03 -0.02 -0.04 -0.02 -0.03 -0.01 -0.04 -0.02 -0.03 -0.02 0 0zm0.39 -0.66l0 0 -0.01 0 0.01 0zm-0.57 0.31l-0.14 -0.75 0.37 0.14 0.01 0.01 0.01 0.02 0.01 0.01 0.01 0.01 0.01 0.01 0.01 0.01 0.01 0.01 0.01 0.01 0.01 0.01 0.01 0.01 0 0.01 0.02 0.01 0.01 0.01 0.01 0.01 0.01 0.01 0.01 0.01 0.01 0.01 0.01 0.01 0.01 0.01 0.01 0.01 0.01 0.01 0.01 0 0.01 0.01 0.01 0.01 0.02 0.01 0.01 0.01 0.01 0.01 0.01 0 0.01 0.01 0.01 0.01 0.01 0 0.02 0.01 -0.39 0.66 -0.02 -0.01 -0.02 -0.01 -0.02 -0.02 -0.02 -0.01 -0.02 -0.01 -0.02 -0.02 -0.02 -0.01 -0.02 -0.01 -0.01 -0.02 -0.02 -0.01 -0.02 -0.02 -0.02 -0.01 -0.02 -0.02 -0.02 -0.01 -0.01 -0.02 -0.02 -0.01 -0.02 -0.02 -0.02 -0.01 -0.02 -0.02 -0.01 -0.02 -0.02 -0.01 -0.01 -0.02 -0.02 -0.02 -0.02 -0.01 -0.01 -0.02 -0.02 -0.02 -0.01 -0.02 -0.02 -0.01 -0.01 -0.02 -0.02 -0.02 -0.01 -0.02 -0.02 -0.02 0.38 0.15zm-0.14 -0.75l0.23 -0.04 0.14 0.18 -0.37 -0.14zm-0.67 0.64l0.33 -0.69 0.01 0.01 0.01 0 0.01 0.01 0.01 0 0.01 0 0.01 0.01 0 0 0.01 0 0.01 0.01 0.01 0 0.01 0 0.01 0 0.01 0.01 0.01 0 0.01 0 0.01 0 0.02 0 0.01 0 0.01 0 0.01 0.01 0.01 0 0.01 0 0.01 0 0.01 0 0.01 0 0.01 0 0.01 0 0.02 -0.01 0.01 0 0.01 0 0.01 0 0.01 0 0.01 0 0.14 0.75 -0.03 0 -0.02 0.01 -0.03 0 -0.02 0 -0.03 0 -0.02 0.01 -0.03 0 -0.03 0 -0.02 0 -0.03 0 -0.02 0 -0.03 0 -0.02 0 -0.03 -0.01 -0.02 0 -0.03 0 -0.03 0 -0.02 -0.01 -0.03 0 -0.02 -0.01 -0.03 0 -0.02 -0.01 -0.03 -0.01 -0.02 0 -0.03 -0.01 -0.02 -0.01 -0.03 -0.01 -0.02 -0.01 -0.03 -0.01 -0.02 -0.01 -0.03 -0.01 -0.02 -0.01 0 0zm0.33 -0.69l0 0 0.01 0.01 -0.01 -0.01zm-1 -0.12l0.73 -0.2 0 0 0.01 0.01 0 0.01 0 0.02 0.01 0.01 0 0.01 0.01 0.01 0.01 0.02 0 0.01 0.01 0.01 0.01 0.01 0 0.01 0.01 0.02 0.01 0.01 0.01 0.01 0.01 0.01 0 0.01 0.01 0.01 0.01 0.01 0.01 0.01 0.01 0.01 0.01 0.01 0.01 0.01 0.01 0.01 0.01 0.01 0.01 0.01 0.01 0 0.02 0.01 0.01 0.01 0.01 0 0.01 0.01 0.01 0.01 0.01 0 -0.33 0.69 -0.03 -0.01 -0.03 -0.02 -0.03 -0.02 -0.03 -0.01 -0.02 -0.02 -0.03 -0.02 -0.03 -0.02 -0.03 -0.02 -0.02 -0.02 -0.03 -0.03 -0.02 -0.02 -0.03 -0.02 -0.02 -0.03 -0.03 -0.02 -0.02 -0.02 -0.02 -0.03 -0.02 -0.03 -0.02 -0.02 -0.02 -0.03 -0.02 -0.03 -0.02 -0.03 -0.02 -0.02 -0.01 -0.03 -0.02 -0.03 -0.02 -0.03 -0.01 -0.03 -0.02 -0.03 -0.01 -0.04 -0.01 -0.03 -0.01 -0.03 -0.01 -0.03 -0.01 -0.04 0 0zm0.05 -0.85l0.7 0.3 0 0 0 0.01 0 0.01 -0.01 0.01 0 0.01 0 0.01 -0.01 0.01 0 0.01 0 0.01 -0.01 0.01 0 0.01 0 0.01 0 0.01 0 0.02 0 0.01 -0.01 0.01 0 0.01 0 0.01 0 0.01 0 0.01 0 0.01 0 0.02 0 0.01 0 0.01 0.01 0.01 0 0.01 0 0.01 0 0.02 0 0.01 0 0.01 0.01 0.01 0 0.01 0 0.01 -0.73 0.2 -0.01 -0.02 -0.01 -0.03 0 -0.03 -0.01 -0.02 0 -0.03 -0.01 -0.03 0 -0.02 0 -0.03 -0.01 -0.03 0 -0.02 0 -0.03 0 -0.03 0 -0.03 0 -0.02 0 -0.03 0 -0.03 0 -0.02 0.01 -0.03 0 -0.03 0 -0.02 0.01 -0.03 0 -0.03 0.01 -0.02 0 -0.03 0.01 -0.03 0.01 -0.02 0 -0.03 0.01 -0.03 0.01 -0.02 0.01 -0.03 0.01 -0.03 0.01 -0.02 0 0zm0.7 0.3l0 0 0 0.01 0 -0.01zm-0.06 -0.96l0.33 0.69 -0.01 0 -0.01 0 -0.01 0.01 -0.01 0 -0.01 0.01 -0.01 0.01 -0.01 0 -0.01 0.01 -0.01 0.01 -0.01 0 -0.01 0.01 -0.01 0.01 -0.01 0.01 0 0 -0.01 0.01 -0.01 0.01 -0.01 0.01 -0.01 0.01 -0.01 0.01 -0.01 0.01 0 0.01 -0.01 0.01 -0.01 0 -0.01 0.01 0 0.01 -0.01 0.01 0 0.02 -0.01 0 -0.01 0.01 0 0.02 -0.01 0.01 0 0.01 -0.01 0.01 -0.7 -0.3 0.01 -0.03 0.02 -0.02 0.01 -0.03 0.01 -0.03 0.02 -0.02 0.01 -0.03 0.02 -0.02 0.01 -0.03 0.02 -0.02 0.02 -0.02 0.01 -0.03 0.02 -0.02 0.02 -0.02 0.02 -0.03 0.02 -0.02 0.02 -0.02 0.02 -0.02 0.02 -0.02 0.02 -0.02 0.02 -0.02 0.03 -0.02 0.02 -0.02 0.02 -0.02 0.03 -0.01 0.02 -0.02 0.02 -0.02 0.03 -0.01 0.02 -0.02 0.03 -0.01 0.03 -0.02 0.02 -0.01 0.03 -0.01 0 0zm0.33 0.69l-0.01 0 0 0 0.01 0zm-0.15 -0.48l0.76 0.09 -0.37 0.34 -0.01 0 -0.01 0 -0.01 0 -0.01 0 -0.01 0 -0.01 0 -0.01 0 0 0 -0.01 0 -0.01 0 -0.01 0 -0.01 0.01 0 0 -0.01 0 -0.01 0 -0.01 0 -0.01 0 0 0 -0.01 0.01 -0.01 0 0 0 -0.01 0 -0.01 0.01 0 0 -0.01 0 -0.01 0 0 0 -0.01 0.01 -0.01 0 0 0 -0.01 0 0 0.01 -0.33 -0.69 0.01 -0.01 0.02 -0.01 0.02 0 0.02 -0.01 0.01 -0.01 0.02 0 0.02 -0.01 0.02 -0.01 0.01 0 0.02 -0.01 0.02 0 0.02 -0.01 0.01 0 0.02 -0.01 0.02 0 0.02 0 0.01 -0.01 0.02 0 0.02 0 0.02 -0.01 0.01 0 0.02 0 0.02 0 0.01 -0.01 0.02 0 0.02 0 0.01 0 0.02 0 0.02 0 0.01 0 0.02 0 0.02 -0.01 -0.37 0.34zm0.76 0.09l-0.05 0.33 -0.32 0.01 0.37 -0.34zm-0.22 -1.07l0.49 0.58 0 0.01 -0.02 0.01 -0.01 0.01 -0.01 0.01 -0.02 0.01 -0.01 0.02 -0.01 0.01 -0.01 0.01 -0.01 0.02 -0.02 0.01 -0.01 0.01 -0.01 0.02 -0.01 0.01 -0.01 0.02 -0.01 0.01 -0.01 0.02 -0.01 0.01 0 0.02 -0.01 0.02 -0.01 0.01 -0.01 0.02 0 0.02 -0.01 0.01 -0.01 0.02 0 0.02 -0.01 0.01 0 0.02 -0.01 0.02 0 0.01 -0.01 0.02 0 0.02 0 0.02 0 0.01 -0.76 -0.09 0 -0.04 0.01 -0.03 0.01 -0.04 0 -0.03 0.01 -0.04 0.01 -0.03 0.01 -0.04 0.01 -0.03 0.01 -0.04 0.02 -0.03 0.01 -0.04 0.01 -0.03 0.02 -0.03 0.01 -0.03 0.02 -0.03 0.02 -0.04 0.01 -0.03 0.02 -0.03 0.02 -0.03 0.02 -0.03 0.02 -0.03 0.02 -0.03 0.03 -0.02 0.02 -0.03 0.02 -0.03 0.03 -0.03 0.02 -0.02 0.03 -0.03 0.02 -0.02 0.03 -0.03 0.03 -0.02 0.02 -0.03 0 0.01zm0.49 0.58l0 0.01 -0.01 0 0.01 -0.01zm0.51 -0.59l0.73 0.23 -0.5 0.24 -0.02 -0.01 -0.02 0 -0.03 -0.01 -0.02 -0.01 -0.02 0 -0.03 -0.01 -0.02 0 -0.03 0 -0.02 0 -0.03 -0.01 -0.02 0 -0.03 0 -0.02 0.01 -0.03 0 -0.02 0 -0.03 0 -0.02 0.01 -0.03 0 -0.02 0.01 -0.02 0.01 -0.03 0 -0.02 0.01 -0.02 0.01 -0.03 0.01 -0.02 0.01 -0.02 0.01 -0.02 0.01 -0.02 0.02 -0.02 0.01 -0.02 0.01 -0.02 0.02 -0.02 0.01 -0.49 -0.58 0.04 -0.03 0.04 -0.04 0.04 -0.02 0.04 -0.03 0.05 -0.03 0.04 -0.02 0.05 -0.02 0.04 -0.02 0.05 -0.02 0.04 -0.02 0.05 -0.02 0.05 -0.01 0.05 -0.02 0.04 -0.01 0.05 -0.01 0.05 -0.01 0.05 -0.01 0.05 0 0.05 -0.01 0.05 0 0.05 0 0.05 0 0.04 0 0.05 0.01 0.05 0 0.05 0.01 0.05 0.01 0.05 0.01 0.05 0.01 0.05 0.02 0.05 0.01 0.04 0.02 -0.5 0.24zm0.73 0.23l-0.12 0.39 -0.38 -0.15 0.5 -0.24zm0.36 -1.52l0.35 0.67 0 0.01 -0.03 0.01 -0.03 0.02 -0.03 0.02 -0.03 0.02 -0.03 0.01 -0.03 0.03 -0.03 0.02 -0.03 0.02 -0.02 0.02 -0.03 0.02 -0.03 0.03 -0.02 0.02 -0.03 0.03 -0.02 0.02 -0.03 0.03 -0.02 0.02 -0.02 0.03 -0.02 0.03 -0.02 0.03 -0.02 0.03 -0.02 0.03 -0.02 0.03 -0.02 0.03 -0.02 0.03 -0.01 0.03 -0.02 0.03 -0.02 0.03 -0.01 0.03 -0.01 0.04 -0.01 0.03 -0.02 0.03 -0.01 0.04 -0.73 -0.23 0.02 -0.05 0.02 -0.05 0.02 -0.05 0.02 -0.05 0.02 -0.05 0.02 -0.05 0.03 -0.05 0.02 -0.05 0.03 -0.05 0.03 -0.04 0.03 -0.05 0.03 -0.04 0.03 -0.05 0.03 -0.04 0.03 -0.04 0.04 -0.05 0.03 -0.04 0.04 -0.04 0.04 -0.04 0.03 -0.04 0.04 -0.03 0.04 -0.04 0.05 -0.03 0.04 -0.04 0.04 -0.03 0.04 -0.03 0.05 -0.04 0.05 -0.03 0.04 -0.03 0.05 -0.02 0.05 -0.03 0.05 -0.02 -0.01 0zm0.35 0.67l0 0 0 0.01 0 -0.01z"/>
   </g>
  </g>
 </g>
</svg>
