<?xml version="1.0" encoding="UTF-8"?>
<!DOCTYPE svg PUBLIC "-//W3C//DTD SVG 1.1//EN" "http://www.w3.org/Graphics/SVG/1.1/DTD/svg11.dtd">
<!-- Creator: CorelDRAW 2018 (64-Bit Evaluation Version) -->
<svg xmlns="http://www.w3.org/2000/svg" xml:space="preserve" width="500px" height="473px" version="1.1" shape-rendering="geometricPrecision" text-rendering="geometricPrecision" image-rendering="optimizeQuality" fill-rule="evenodd" clip-rule="evenodd"
viewBox="0 0 555.53 525.04"
 xmlns:xlink="http://www.w3.org/1999/xlink">
 <g id="Layer_x0020_1">
  <metadata id="CorelCorpID_0Corel-Layer"/>
  <g id="_2583904473248">
   <g>
    <path fill="#26293A" fill-rule="nonzero" d="M72.47 521.67c0,1.13 -0.24,1.97 -0.7,2.53 -0.46,0.56 -1.17,0.84 -2.09,0.84 -0.94,0 -1.65,-0.29 -2.14,-0.87 -0.48,-0.57 -0.72,-1.4 -0.72,-2.5l0 -51.35c0,-1.07 0.24,-1.88 0.72,-2.44 0.49,-0.56 1.2,-0.85 2.14,-0.85 0.92,0 1.63,0.29 2.09,0.83 0.46,0.55 0.7,1.37 0.7,2.46l0 51.35z"/>
    <path id="1" fill="#26293A" fill-rule="nonzero" d="M89.83 521.59c0,1.09 -0.23,1.91 -0.66,2.46 -0.44,0.54 -1.08,0.83 -1.94,0.83 -0.87,0 -1.55,-0.29 -2.01,-0.85 -0.46,-0.56 -0.7,-1.37 -0.7,-2.44l0 -36.33c0,-1.09 0.24,-1.94 0.71,-2.51 0.48,-0.58 1.16,-0.88 2,-0.88 0.86,0 1.5,0.3 1.94,0.88 0.43,0.57 0.66,1.42 0.66,2.51l0 3.02c1.87,-2.33 3.89,-4.04 6.08,-5.13 2.2,-1.08 4.73,-1.61 7.58,-1.61 4.93,0 8.7,1.42 11.28,4.27 2.6,2.85 3.9,7 3.9,12.44l0 23.34c0,1.09 -0.23,1.91 -0.68,2.46 -0.46,0.54 -1.11,0.83 -1.95,0.83 -0.86,0 -1.51,-0.29 -1.94,-0.83 -0.44,-0.55 -0.66,-1.37 -0.66,-2.46l0 -21.01c0,-5.21 -0.85,-8.9 -2.55,-11.07 -1.7,-2.17 -4.46,-3.25 -8.32,-3.25 -4.3,0 -7.5,1.5 -9.59,4.51 -2.1,3.01 -3.15,7.6 -3.15,13.8l0 17.02z"/>
    <path id="2" fill="#26293A" fill-rule="nonzero" d="M135.53 521.59c0,1.09 -0.23,1.91 -0.66,2.46 -0.44,0.54 -1.08,0.83 -1.94,0.83 -0.87,0 -1.55,-0.29 -2.01,-0.85 -0.46,-0.56 -0.7,-1.37 -0.7,-2.44l0 -36.33c0,-1.09 0.24,-1.94 0.71,-2.51 0.48,-0.58 1.16,-0.88 2,-0.88 0.86,0 1.5,0.3 1.94,0.88 0.43,0.57 0.66,1.42 0.66,2.51l0 3.02c1.87,-2.33 3.89,-4.04 6.08,-5.13 2.2,-1.08 4.73,-1.61 7.58,-1.61 4.93,0 8.7,1.42 11.28,4.27 2.6,2.85 3.9,7 3.9,12.44l0 23.34c0,1.09 -0.23,1.91 -0.68,2.46 -0.46,0.54 -1.11,0.83 -1.95,0.83 -0.86,0 -1.51,-0.29 -1.94,-0.83 -0.44,-0.55 -0.66,-1.37 -0.66,-2.46l0 -21.01c0,-5.21 -0.85,-8.9 -2.55,-11.07 -1.7,-2.17 -4.46,-3.25 -8.32,-3.25 -4.3,0 -7.5,1.5 -9.59,4.51 -2.1,3.01 -3.15,7.6 -3.15,13.8l0 17.02z"/>
    <path id="3" fill="#0092E0" fill-rule="nonzero" d="M192.95 521.67c0,1.13 -0.24,1.97 -0.7,2.53 -0.47,0.56 -1.17,0.84 -2.1,0.84 -0.91,0 -1.61,-0.29 -2.11,-0.87 -0.49,-0.57 -0.74,-1.4 -0.74,-2.5l0 -49.07 -13.49 0c-1.1,0 -1.94,-0.23 -2.52,-0.66 -0.57,-0.44 -0.85,-1.08 -0.85,-1.94 0,-0.84 0.28,-1.49 0.85,-1.95 0.58,-0.45 1.42,-0.68 2.52,-0.68l32.63 0c1.1,0 1.94,0.21 2.51,0.63 0.58,0.44 0.86,1.07 0.86,1.92 0,0.85 -0.29,1.5 -0.88,1.93 -0.59,0.44 -1.42,0.67 -2.49,0.67l-13.49 0 0 49.15z"/>
    <path id="4" fill="#0092E0" fill-rule="nonzero" d="M212 498.15l26.83 0c-0.17,-3.77 -1.45,-6.75 -3.86,-8.98 -2.42,-2.22 -5.6,-3.33 -9.55,-3.33 -3.87,0 -7.02,1.11 -9.44,3.33 -2.43,2.23 -3.75,5.21 -3.98,8.98zm28.15 21.67c1.11,0 1.96,0.21 2.53,0.62 0.58,0.4 0.87,0.99 0.87,1.75 0,0.8 -0.28,1.41 -0.84,1.81 -0.58,0.41 -1.42,0.62 -2.56,0.62l-8.4 0c-4.3,0 -7.77,-0.29 -10.41,-0.87 -2.63,-0.57 -4.95,-1.52 -6.96,-2.84 -2.68,-1.75 -4.81,-4.23 -6.35,-7.42 -1.56,-3.2 -2.34,-6.7 -2.34,-10.51 0,-6.24 1.89,-11.38 5.67,-15.44 3.76,-4.06 8.57,-6.09 14.39,-6.09 5.21,0 9.62,1.7 13.24,5.12 3.61,3.41 5.41,7.52 5.41,12.31l0 1.6c0,0.72 -0.23,1.26 -0.66,1.64 -0.44,0.38 -1.07,0.58 -1.89,0.58l-30.34 0 0 0.25c0,6.05 1.51,10.37 4.51,12.97 3,2.6 8.1,3.9 15.28,3.9l8.85 0z"/>
    <path id="5" fill="#0092E0" fill-rule="nonzero" d="M282.77 482.21c1.16,0 2,0.2 2.55,0.58 0.55,0.38 0.83,0.97 0.83,1.77 0,0.76 -0.3,1.36 -0.89,1.8 -0.59,0.43 -1.42,0.66 -2.49,0.66l-11.49 0c-4.72,0 -8.42,1.21 -11.12,3.61 -2.68,2.4 -4.03,5.69 -4.03,9.86 0,5.77 2.05,10.42 6.16,13.94 4.1,3.53 9.64,5.3 16.61,5.3l5.64 0c1.07,0 1.92,0.23 2.53,0.66 0.62,0.44 0.93,1.04 0.93,1.8 0,0.8 -0.29,1.41 -0.88,1.81 -0.59,0.41 -1.45,0.62 -2.58,0.62l-4.65 0c-3.92,0 -6.94,-0.18 -9.05,-0.53 -2.12,-0.37 -4.09,-0.94 -5.93,-1.73 -4.38,-1.9 -7.89,-4.83 -10.55,-8.84 -2.64,-3.99 -3.96,-8.33 -3.96,-13.03 0,-5.73 1.75,-10.21 5.25,-13.44 3.52,-3.22 8.36,-4.84 14.56,-4.84l12.56 0z"/>
    <path id="6" fill="#0092E0" fill-rule="nonzero" d="M300.58 521.59c0,1.09 -0.23,1.91 -0.66,2.46 -0.44,0.54 -1.08,0.83 -1.94,0.83 -0.87,0 -1.55,-0.29 -2.01,-0.85 -0.46,-0.56 -0.7,-1.37 -0.7,-2.44l0 -50.93c0,-1.04 0.24,-1.85 0.7,-2.43 0.46,-0.58 1.14,-0.86 2.01,-0.86 0.86,0 1.5,0.28 1.94,0.85 0.43,0.56 0.66,1.37 0.66,2.44l0 17.62c1.87,-2.33 3.89,-4.04 6.08,-5.13 2.2,-1.08 4.73,-1.61 7.58,-1.61 4.93,0 8.7,1.42 11.28,4.27 2.6,2.85 3.9,7 3.9,12.44l0 23.34c0,1.09 -0.23,1.91 -0.68,2.46 -0.46,0.54 -1.11,0.83 -1.95,0.83 -0.86,0 -1.51,-0.29 -1.94,-0.83 -0.44,-0.55 -0.66,-1.37 -0.66,-2.46l0 -21.01c0,-5.21 -0.85,-8.9 -2.55,-11.07 -1.7,-2.17 -4.46,-3.25 -8.31,-3.25 -4.3,0 -7.51,1.5 -9.6,4.51 -2.1,3.01 -3.15,7.6 -3.15,13.8l0 17.02z"/>
    <path fill="#26293A" fill-rule="nonzero" d="M355.72 504.75l0 19.32 -12.64 0 0 -56.09 19.8 0c14.14,0 21.2,5.96 21.2,17.88 0,5.63 -2.03,10.19 -6.09,13.67 -4.06,3.47 -9.47,5.22 -16.25,5.22l-6.02 0zm0 -27.07l0 17.49 4.97 0c6.73,0 10.09,-2.96 10.09,-8.84 0,-5.77 -3.36,-8.65 -10.09,-8.65l-4.97 0z"/>
    <path id="1" fill="#26293A" fill-rule="nonzero" d="M416 525.04c-8.04,0 -14.58,-2.61 -19.64,-7.83 -5.06,-5.24 -7.58,-12.04 -7.58,-20.44 0,-8.87 2.56,-16.04 7.7,-21.51 5.14,-5.48 11.94,-8.23 20.42,-8.23 8.01,0 14.48,2.63 19.42,7.87 4.94,5.25 7.41,12.16 7.41,20.73 0,8.81 -2.56,15.93 -7.69,21.32 -5.11,5.4 -11.8,8.09 -20.04,8.09zm0.55 -47.12c-4.43,0 -7.96,1.65 -10.56,4.99 -2.61,3.32 -3.91,7.72 -3.91,13.19 0,5.55 1.3,9.95 3.91,13.19 2.6,3.23 6.02,4.85 10.24,4.85 4.36,0 7.81,-1.58 10.37,-4.72 2.55,-3.15 3.83,-7.5 3.83,-13.08 0,-5.82 -1.24,-10.35 -3.71,-13.58 -2.48,-3.23 -5.87,-4.84 -10.17,-4.84z"/>
    <path id="2" fill="#26293A" fill-rule="nonzero" d="M450.46 521.92l0 -12.52c2.27,1.91 4.74,3.34 7.4,4.28 2.65,0.95 5.34,1.43 8.05,1.43 1.6,0 2.99,-0.15 4.16,-0.43 1.19,-0.29 2.18,-0.68 2.98,-1.2 0.8,-0.5 1.39,-1.11 1.78,-1.79 0.4,-0.69 0.58,-1.44 0.58,-2.25 0,-1.1 -0.3,-2.07 -0.93,-2.93 -0.63,-0.86 -1.48,-1.67 -2.56,-2.39 -1.09,-0.73 -2.37,-1.44 -3.86,-2.11 -1.48,-0.68 -3.09,-1.37 -4.81,-2.08 -4.38,-1.81 -7.65,-4.04 -9.8,-6.69 -2.15,-2.63 -3.22,-5.81 -3.22,-9.53 0,-2.92 0.58,-5.43 1.75,-7.53 1.18,-2.11 2.78,-3.83 4.8,-5.19 2.02,-1.35 4.36,-2.35 7.02,-2.99 2.65,-0.65 5.47,-0.97 8.45,-0.97 2.92,0 5.51,0.19 7.77,0.54 2.24,0.35 4.33,0.89 6.23,1.63l0 11.69c-0.94,-0.65 -1.96,-1.23 -3.07,-1.72 -1.1,-0.49 -2.25,-0.91 -3.43,-1.24 -1.16,-0.32 -2.33,-0.56 -3.5,-0.72 -1.16,-0.15 -2.25,-0.23 -3.29,-0.23 -1.45,0 -2.74,0.13 -3.92,0.4 -1.17,0.28 -2.16,0.67 -2.97,1.16 -0.8,0.5 -1.43,1.08 -1.88,1.78 -0.45,0.69 -0.66,1.47 -0.66,2.32 0,0.95 0.24,1.79 0.74,2.53 0.49,0.74 1.2,1.45 2.12,2.12 0.91,0.65 2.01,1.31 3.32,1.95 1.3,0.64 2.78,1.29 4.42,1.97 2.24,0.94 4.25,1.94 6.04,2.99 1.79,1.06 3.32,2.26 4.59,3.58 1.28,1.34 2.26,2.86 2.94,4.57 0.68,1.69 1.01,3.68 1.01,5.95 0,3.14 -0.59,5.76 -1.77,7.89 -1.19,2.13 -2.79,3.85 -4.84,5.16 -2.03,1.32 -4.39,2.27 -7.09,2.84 -2.71,0.57 -5.55,0.85 -8.56,0.85 -3.07,0 -5.99,-0.25 -8.77,-0.77 -2.77,-0.52 -5.19,-1.31 -7.22,-2.35z"/>
   </g>
   <g>
    <path fill="#0092E0" fill-rule="nonzero" d="M351.37 1.24l-6.73 55.29 -0.11 -0.02 -1.91 -0.22 -1.92 -0.19 -1.92 -0.15 -1.93 -0.12 -1.93 -0.08 -1.93 -0.04 -1.93 -0.01 -1.93 0.02 -1.93 0.06 -1.93 0.1 -1.93 0.13 -1.92 0.17 -1.92 0.2 -1.91 0.24 -1.91 0.27 -1.91 0.31 -1.89 0.34 -1.88 0.38 -1.88 0.41 -1.87 0.45 -1.85 0.48 -1.85 0.51 -1.83 0.55 -1.81 0.58 -1.81 0.62 -1.79 0.65 -1.77 0.69 -1.75 0.72 -1.74 0.75 -1.73 0.78 -1.7 0.82 -1.68 0.85 -25.59 -49.48 2.69 -1.35 2.7 -1.3 2.73 -1.24 2.74 -1.18 2.77 -1.13 2.78 -1.08 2.8 -1.02 2.81 -0.96 2.83 -0.91 2.85 -0.86 2.86 -0.79 2.87 -0.75 2.89 -0.69 2.89 -0.63 2.9 -0.59 2.92 -0.52 2.92 -0.47 2.92 -0.42 2.94 -0.37 2.94 -0.3 2.94 -0.26 2.95 -0.2 2.95 -0.15 2.95 -0.09 2.95 -0.04 2.96 0.02 2.95 0.07 2.95 0.12 2.96 0.18 2.94 0.23 2.95 0.29 2.93 0.34 -0.11 -0.01zm-6.73 55.29l-0.05 -0.01 -0.06 -0.01 0.11 0.02zm108.96 0.97l-42.84 35.6 -0.12 -0.14 -1.54 -1.84 -1.59 -1.8 -1.63 -1.76 -1.68 -1.72 -1.72 -1.69 -1.76 -1.64 -1.8 -1.61 -1.85 -1.56 -1.88 -1.52 -1.92 -1.48 -1.95 -1.43 -1.99 -1.39 -2.02 -1.34 -2.06 -1.3 -2.08 -1.25 -2.11 -1.2 -2.14 -1.14 -2.17 -1.1 -2.18 -1.05 -2.21 -0.99 -2.23 -0.95 -2.25 -0.88 -2.27 -0.84 -2.29 -0.78 -2.29 -0.72 -2.32 -0.67 -2.32 -0.61 -2.33 -0.55 -2.35 -0.49 -2.35 -0.44 -2.36 -0.38 -2.36 -0.31 6.73 -55.29 3.75 0.5 3.72 0.6 3.7 0.68 3.68 0.78 3.65 0.86 3.63 0.95 3.6 1.04 3.56 1.12 3.54 1.21 3.51 1.29 3.47 1.37 3.44 1.45 3.4 1.53 3.36 1.61 3.32 1.68 3.28 1.77 3.25 1.84 3.19 1.91 3.15 1.99 3.11 2.06 3.05 2.13 3.01 2.21 2.95 2.28 2.91 2.34 2.85 2.42 2.79 2.48 2.73 2.56 2.68 2.62 2.61 2.68 2.56 2.76 2.48 2.81 2.42 2.88 -0.12 -0.15zm-42.84 35.6l-0.06 -0.07 -0.06 -0.07 0.12 0.14zm57.58 29.6l-13.14 54.12 -21.22 -25.27 -0.15 -1.99 -0.19 -1.97 -0.22 -1.98 -0.27 -1.98 -0.3 -1.97 -0.35 -1.96 -0.38 -1.96 -0.43 -1.96 -0.46 -1.94 -0.5 -1.94 -0.53 -1.94 -0.58 -1.92 -0.61 -1.91 -0.65 -1.89 -0.69 -1.89 -0.72 -1.87 -0.76 -1.86 -0.79 -1.84 -0.83 -1.82 -0.86 -1.81 -0.9 -1.79 -0.94 -1.77 -0.96 -1.75 -1 -1.74 -1.03 -1.7 -1.07 -1.69 -1.1 -1.66 -1.12 -1.64 -1.16 -1.62 -1.19 -1.59 -1.22 -1.56 -1.26 -1.54 42.84 -35.6 1.96 2.42 1.92 2.45 1.86 2.48 1.81 2.52 1.76 2.55 1.7 2.59 1.65 2.61 1.6 2.65 1.55 2.68 1.49 2.7 1.44 2.73 1.38 2.76 1.33 2.79 1.28 2.81 1.22 2.83 1.17 2.85 1.11 2.88 1.05 2.9 1 2.92 0.94 2.93 0.89 2.96 0.82 2.97 0.77 2.99 0.72 3.01 0.65 3.02 0.59 3.03 0.54 3.05 0.47 3.06 0.42 3.07 0.35 3.08 0.29 3.09 0.23 3.1 -21.22 -25.28zm-13.14 54.12l-19.91 -4.83 -1.31 -20.44 21.22 25.27zm72.87 -17.6l-42.12 36.45 -0.16 -0.18 -0.72 -0.84 -0.75 -0.83 -0.77 -0.81 -0.78 -0.8 -0.8 -0.78 -0.82 -0.77 -0.84 -0.76 -0.86 -0.74 -0.87 -0.72 -0.88 -0.71 -0.91 -0.69 -0.91 -0.68 -0.94 -0.66 -0.94 -0.64 -0.96 -0.62 -0.98 -0.61 -0.98 -0.59 -1 -0.57 -1 -0.55 -1.02 -0.53 -1.03 -0.51 -1.05 -0.49 -1.04 -0.47 -1.06 -0.45 -1.06 -0.43 -1.08 -0.41 -1.07 -0.39 -1.09 -0.37 -1.09 -0.34 -1.09 -0.33 -1.1 -0.3 -1.1 -0.28 13.14 -54.12 2.17 0.55 2.15 0.59 2.13 0.63 2.12 0.67 2.11 0.71 2.09 0.76 2.08 0.79 2.06 0.83 2.04 0.87 2.03 0.91 2 0.95 1.99 0.99 1.97 1.02 1.95 1.07 1.93 1.1 1.9 1.14 1.89 1.17 1.86 1.22 1.84 1.24 1.82 1.29 1.8 1.32 1.77 1.36 1.74 1.39 1.72 1.43 1.69 1.47 1.66 1.5 1.64 1.53 1.61 1.57 1.57 1.61 1.55 1.64 1.52 1.67 1.48 1.71 -0.15 -0.18zm-42.12 36.45l-0.09 -0.1 -0.07 -0.08 0.16 0.18zm69.57 37.58l-55.69 0.78 0 -0.82 0.01 -1.24 -0.03 -1.24 -0.06 -1.25 -0.08 -1.25 -0.12 -1.25 -0.14 -1.25 -0.18 -1.26 -0.2 -1.25 -0.24 -1.25 -0.26 -1.25 -0.29 -1.24 -0.32 -1.25 -0.35 -1.23 -0.38 -1.23 -0.41 -1.23 -0.43 -1.21 -0.47 -1.21 -0.49 -1.2 -0.51 -1.19 -0.54 -1.17 -0.57 -1.17 -0.6 -1.15 -0.61 -1.13 -0.65 -1.12 -0.66 -1.11 -0.69 -1.09 -0.72 -1.07 -0.73 -1.05 -0.76 -1.03 -0.78 -1.01 -0.8 -0.99 -0.82 -0.97 42.12 -36.45 1.64 1.95 1.6 1.98 1.56 2.02 1.5 2.05 1.46 2.08 1.41 2.12 1.36 2.14 1.31 2.17 1.26 2.2 1.21 2.22 1.16 2.25 1.11 2.27 1.06 2.3 1.01 2.33 0.96 2.34 0.9 2.37 0.86 2.38 0.8 2.41 0.74 2.42 0.69 2.45 0.64 2.46 0.58 2.48 0.53 2.49 0.47 2.5 0.41 2.53 0.35 2.53 0.3 2.54 0.24 2.56 0.17 2.57 0.12 2.57 0.05 2.58 -0.01 2.59 0 -0.82zm-55.69 0.78l0 -0.41 0 -0.41 0 0.82zm33.42 67.47l-44.68 -33.26 -0.01 0.02 0.67 -0.93 0.66 -0.94 0.64 -0.96 0.62 -0.97 0.6 -0.99 0.58 -1 0.57 -1.01 0.54 -1.02 0.52 -1.03 0.5 -1.05 0.49 -1.05 0.46 -1.07 0.43 -1.07 0.42 -1.08 0.4 -1.09 0.37 -1.09 0.35 -1.1 0.33 -1.11 0.3 -1.11 0.28 -1.11 0.26 -1.12 0.24 -1.12 0.21 -1.12 0.19 -1.13 0.16 -1.12 0.14 -1.12 0.12 -1.13 0.09 -1.12 0.07 -1.12 0.04 -1.12 0.03 -1.11 -0.01 -1.12 55.69 -0.78 0.01 2.32 -0.04 2.31 -0.09 2.31 -0.14 2.3 -0.19 2.3 -0.24 2.28 -0.29 2.28 -0.33 2.27 -0.38 2.26 -0.42 2.24 -0.47 2.24 -0.51 2.22 -0.56 2.21 -0.6 2.19 -0.65 2.18 -0.69 2.17 -0.73 2.15 -0.78 2.14 -0.81 2.12 -0.86 2.1 -0.9 2.08 -0.95 2.07 -0.98 2.04 -1.02 2.03 -1.07 2 -1.1 1.99 -1.15 1.96 -1.18 1.94 -1.23 1.92 -1.26 1.9 -1.31 1.87 -1.34 1.84 -0.01 0.02zm-48.4 37.62l-21.24 -51.49 0.19 -0.08 0.9 -0.37 0.89 -0.38 0.88 -0.41 0.88 -0.42 0.87 -0.44 0.87 -0.45 0.87 -0.47 0.85 -0.49 0.85 -0.5 0.84 -0.52 0.84 -0.53 0.83 -0.55 0.81 -0.56 0.81 -0.58 0.8 -0.59 0.8 -0.61 0.78 -0.63 0.77 -0.63 0.77 -0.65 0.75 -0.66 0.74 -0.68 0.73 -0.68 0.73 -0.71 0.7 -0.71 0.7 -0.72 0.68 -0.74 0.68 -0.75 0.65 -0.75 0.65 -0.77 0.63 -0.78 0.62 -0.79 0.6 -0.79 44.68 33.26 -1.17 1.55 -1.2 1.52 -1.22 1.5 -1.25 1.49 -1.27 1.46 -1.29 1.44 -1.32 1.42 -1.34 1.39 -1.37 1.38 -1.38 1.34 -1.42 1.33 -1.43 1.31 -1.45 1.27 -1.48 1.26 -1.5 1.23 -1.52 1.21 -1.54 1.18 -1.56 1.15 -1.58 1.13 -1.61 1.11 -1.62 1.07 -1.64 1.05 -1.66 1.02 -1.68 1 -1.7 0.96 -1.72 0.94 -1.73 0.91 -1.76 0.88 -1.77 0.84 -1.79 0.82 -1.81 0.79 -1.82 0.75 0.2 -0.08zm-21.24 -51.49l0.11 -0.04 0.08 -0.04 -0.19 0.08zm-35.88 36.7l-48.75 -26.94 36.7 -11.51 1.37 0.66 1.39 0.61 1.42 0.59 1.43 0.54 1.45 0.51 1.47 0.47 1.49 0.43 1.5 0.39 1.51 0.36 1.53 0.32 1.53 0.27 1.55 0.24 1.55 0.2 1.56 0.16 1.56 0.11 1.56 0.08 1.56 0.04 1.56 -0.01 1.57 -0.04 1.55 -0.08 1.55 -0.13 1.54 -0.16 1.54 -0.21 1.52 -0.24 1.51 -0.28 1.5 -0.33 1.49 -0.36 1.47 -0.4 1.45 -0.44 1.43 -0.48 1.42 -0.51 1.4 -0.56 21.24 51.49 -2.86 1.13 -2.88 1.05 -2.89 0.97 -2.92 0.88 -2.93 0.8 -2.95 0.72 -2.96 0.63 -2.98 0.56 -2.98 0.48 -2.98 0.4 -3 0.32 -3 0.24 -3 0.16 -3 0.09 -3 0 -3.01 -0.07 -2.99 -0.15 -3 -0.22 -2.98 -0.31 -2.98 -0.38 -2.97 -0.45 -2.96 -0.54 -2.94 -0.61 -2.93 -0.68 -2.92 -0.77 -2.89 -0.84 -2.88 -0.92 -2.86 -1 -2.83 -1.08 -2.81 -1.15 -2.78 -1.24 -2.76 -1.31 36.7 -11.5zm-48.75 -26.94l12.86 -23.27 23.84 11.76 -36.7 11.51zm-10.32 77.31l-19.16 -52.3 0.22 -0.08 1.13 -0.42 1.12 -0.44 1.11 -0.47 1.11 -0.5 1.09 -0.53 1.09 -0.55 1.08 -0.58 1.06 -0.61 1.06 -0.63 1.04 -0.65 1.03 -0.68 1.02 -0.7 0.99 -0.73 0.99 -0.75 0.97 -0.77 0.95 -0.79 0.94 -0.82 0.91 -0.83 0.9 -0.86 0.88 -0.88 0.86 -0.89 0.84 -0.91 0.81 -0.93 0.79 -0.94 0.78 -0.96 0.74 -0.98 0.73 -0.99 0.7 -1 0.67 -1.02 0.65 -1.03 0.62 -1.04 0.6 -1.05 48.75 26.94 -1.24 2.18 -1.28 2.14 -1.33 2.11 -1.38 2.08 -1.43 2.04 -1.46 2.01 -1.52 1.98 -1.55 1.93 -1.59 1.9 -1.64 1.86 -1.67 1.82 -1.72 1.79 -1.75 1.74 -1.79 1.71 -1.83 1.66 -1.86 1.63 -1.9 1.58 -1.94 1.54 -1.97 1.5 -2 1.46 -2.04 1.41 -2.07 1.36 -2.1 1.32 -2.13 1.28 -2.16 1.22 -2.19 1.18 -2.23 1.13 -2.25 1.08 -2.28 1.03 -2.3 0.98 -2.33 0.93 -2.36 0.87 0.22 -0.08zm-19.16 -52.3l0.11 -0.04 0.11 -0.04 -0.22 0.08zm-31.51 58.02l6.43 -55.32 -0.26 -0.03 0.85 0.08 0.85 0.08 0.85 0.06 0.84 0.06 0.85 0.04 0.84 0.03 0.84 0.02 0.83 0.01 0.84 0 0.83 -0.02 0.83 -0.02 0.82 -0.03 0.82 -0.05 0.82 -0.06 0.81 -0.07 0.8 -0.07 0.8 -0.09 0.79 -0.1 0.79 -0.12 0.78 -0.12 0.78 -0.13 0.77 -0.15 0.76 -0.15 0.76 -0.17 0.74 -0.17 0.74 -0.19 0.74 -0.2 0.73 -0.2 0.72 -0.22 0.71 -0.23 0.71 -0.24 0.7 -0.25 19.16 52.3 -1.57 0.56 -1.57 0.53 -1.58 0.51 -1.58 0.48 -1.58 0.45 -1.58 0.42 -1.59 0.4 -1.59 0.37 -1.59 0.35 -1.59 0.32 -1.59 0.3 -1.59 0.27 -1.59 0.25 -1.59 0.23 -1.59 0.2 -1.59 0.18 -1.58 0.15 -1.59 0.14 -1.58 0.11 -1.58 0.09 -1.58 0.06 -1.57 0.05 -1.57 0.02 -1.57 0.01 -1.57 -0.02 -1.56 -0.04 -1.56 -0.06 -1.56 -0.07 -1.55 -0.1 -1.54 -0.12 -1.54 -0.13 -1.54 -0.16 -0.27 -0.03zm0.27 0.03l-0.13 -0.01 -0.14 -0.02 0.27 0.03zm-25.18 -31.92l-40.23 -38.52 39.92 -0.31 0.78 0.77 0.8 0.76 0.82 0.74 0.84 0.73 0.85 0.71 0.88 0.7 0.89 0.67 0.9 0.66 0.92 0.65 0.94 0.62 0.95 0.61 0.96 0.58 0.98 0.57 0.99 0.55 1 0.52 1.02 0.51 1.02 0.48 1.03 0.47 1.05 0.44 1.04 0.42 1.06 0.4 1.07 0.37 1.07 0.35 1.07 0.33 1.09 0.31 1.08 0.28 1.09 0.26 1.09 0.24 1.09 0.21 1.09 0.19 1.1 0.16 1.09 0.14 -6.43 55.32 -2.29 -0.29 -2.29 -0.34 -2.28 -0.39 -2.26 -0.44 -2.25 -0.48 -2.23 -0.54 -2.23 -0.58 -2.2 -0.62 -2.19 -0.67 -2.18 -0.72 -2.16 -0.76 -2.14 -0.8 -2.12 -0.85 -2.11 -0.9 -2.08 -0.93 -2.07 -0.98 -2.04 -1.02 -2.03 -1.07 -2 -1.1 -1.98 -1.15 -1.95 -1.19 -1.93 -1.23 -1.91 -1.27 -1.88 -1.31 -1.85 -1.35 -1.83 -1.4 -1.8 -1.43 -1.77 -1.47 -1.74 -1.52 -1.71 -1.55 -1.68 -1.59 -1.65 -1.63 39.92 -0.32zm-40.23 -38.52l19.8 -20.67 20.12 20.36 -39.92 0.31zm-42.97 79.56l-6.37 -55.33 0.19 -0.02 1.72 -0.21 1.71 -0.24 1.71 -0.28 1.7 -0.32 1.7 -0.36 1.7 -0.4 1.69 -0.44 1.68 -0.47 1.67 -0.51 1.67 -0.55 1.65 -0.58 1.64 -0.62 1.63 -0.66 1.62 -0.69 1.6 -0.73 1.59 -0.76 1.57 -0.79 1.55 -0.83 1.53 -0.86 1.51 -0.89 1.5 -0.92 1.47 -0.96 1.45 -0.98 1.43 -1.02 1.4 -1.05 1.37 -1.07 1.35 -1.1 1.33 -1.13 1.3 -1.16 1.26 -1.18 1.24 -1.21 1.21 -1.24 40.23 38.52 -2.09 2.14 -2.13 2.08 -2.18 2.03 -2.22 1.98 -2.26 1.93 -2.3 1.88 -2.33 1.82 -2.38 1.77 -2.41 1.72 -2.44 1.66 -2.48 1.61 -2.52 1.55 -2.54 1.51 -2.58 1.44 -2.6 1.39 -2.64 1.33 -2.66 1.28 -2.69 1.22 -2.71 1.16 -2.74 1.1 -2.77 1.04 -2.79 0.99 -2.81 0.92 -2.83 0.87 -2.85 0.8 -2.87 0.74 -2.89 0.68 -2.91 0.61 -2.92 0.55 -2.94 0.49 -2.95 0.42 -2.97 0.35 0.2 -0.02zm-6.37 -55.33l0.1 -0.01 0.09 -0.01 -0.19 0.02zm-78.4 37.53l27.93 -48.19 0.18 0.1 1.39 0.8 1.42 0.78 1.43 0.74 1.45 0.72 1.47 0.69 1.48 0.66 1.51 0.63 1.51 0.6 1.53 0.57 1.54 0.54 1.56 0.51 1.56 0.48 1.58 0.45 1.59 0.41 1.6 0.39 1.6 0.35 1.61 0.32 1.62 0.29 1.63 0.26 1.63 0.22 1.63 0.2 1.63 0.16 1.64 0.12 1.64 0.1 1.64 0.06 1.63 0.03 1.64 0 1.64 -0.04 1.63 -0.07 1.62 -0.1 1.62 -0.14 1.62 -0.17 6.37 55.33 -2.76 0.29 -2.76 0.23 -2.76 0.18 -2.76 0.12 -2.76 0.06 -2.75 0.01 -2.76 -0.05 -2.75 -0.11 -2.75 -0.16 -2.75 -0.21 -2.73 -0.27 -2.74 -0.32 -2.72 -0.38 -2.72 -0.43 -2.71 -0.48 -2.69 -0.54 -2.69 -0.59 -2.68 -0.64 -2.66 -0.7 -2.65 -0.75 -2.63 -0.81 -2.62 -0.86 -2.6 -0.91 -2.59 -0.96 -2.57 -1.02 -2.54 -1.07 -2.54 -1.12 -2.5 -1.18 -2.49 -1.23 -2.46 -1.28 -2.44 -1.34 -2.41 -1.39 0.17 0.11zm27.93 -48.19l0.07 0.04 0.11 0.06 -0.18 -0.1zm-41.66 22.42l-9.73 -54.84 27.11 10.67 0.63 0.83 0.64 0.82 0.65 0.81 0.66 0.8 0.67 0.8 0.68 0.78 0.68 0.78 0.7 0.77 0.7 0.76 0.72 0.75 0.71 0.74 0.74 0.73 0.73 0.72 0.75 0.71 0.75 0.7 0.76 0.69 0.77 0.68 0.78 0.67 0.78 0.66 0.79 0.65 0.79 0.64 0.81 0.63 0.81 0.61 0.82 0.6 0.82 0.6 0.83 0.58 0.84 0.57 0.84 0.56 0.85 0.54 0.85 0.53 0.86 0.53 0.87 0.51 -27.93 48.19 -1.5 -0.89 -1.49 -0.9 -1.48 -0.92 -1.46 -0.95 -1.45 -0.96 -1.44 -0.97 -1.42 -1 -1.4 -1.01 -1.4 -1.03 -1.38 -1.04 -1.36 -1.06 -1.34 -1.08 -1.34 -1.1 -1.32 -1.11 -1.3 -1.12 -1.29 -1.14 -1.27 -1.16 -1.26 -1.17 -1.24 -1.19 -1.23 -1.19 -1.2 -1.22 -1.2 -1.23 -1.18 -1.24 -1.17 -1.25 -1.14 -1.27 -1.14 -1.29 -1.11 -1.29 -1.1 -1.31 -1.09 -1.32 -1.06 -1.33 -1.06 -1.35 -1.03 -1.36 27.12 10.68zm-9.73 -54.84l16.83 -2.99 10.28 13.66 -27.11 -10.67zm-48.74 47.01l24.01 -50.26 0.53 0.26 0.63 0.31 0.63 0.3 0.65 0.28 0.66 0.27 0.68 0.25 0.68 0.25 0.69 0.23 0.71 0.22 0.71 0.2 0.72 0.19 0.74 0.18 0.74 0.16 0.75 0.15 0.76 0.14 0.77 0.12 0.77 0.1 0.78 0.09 0.79 0.08 0.79 0.06 0.8 0.04 0.8 0.04 0.81 0.01 0.81 0 0.81 -0.01 0.81 -0.03 0.82 -0.05 0.81 -0.06 0.82 -0.08 0.82 -0.09 0.81 -0.11 0.82 -0.12 0.81 -0.13 9.73 54.84 -1.82 0.3 -1.82 0.28 -1.84 0.23 -1.83 0.21 -1.84 0.17 -1.84 0.14 -1.86 0.1 -1.85 0.07 -1.86 0.04 -1.86 0 -1.86 -0.04 -1.87 -0.07 -1.86 -0.11 -1.87 -0.14 -1.87 -0.18 -1.87 -0.22 -1.87 -0.26 -1.87 -0.29 -1.86 -0.33 -1.86 -0.37 -1.87 -0.41 -1.85 -0.45 -1.86 -0.48 -1.85 -0.53 -1.84 -0.57 -1.83 -0.62 -1.83 -0.65 -1.82 -0.69 -1.8 -0.74 -1.81 -0.78 -1.78 -0.83 -1.78 -0.87 0.53 0.26zm24.01 -50.26l0.26 0.13 0.27 0.13 -0.53 -0.26zm-73.43 -8.72l53.65 -14.94 0 0 0.27 0.92 0.3 0.93 0.33 0.92 0.35 0.91 0.38 0.91 0.4 0.9 0.44 0.9 0.45 0.89 0.48 0.87 0.51 0.87 0.53 0.86 0.55 0.85 0.58 0.83 0.6 0.81 0.62 0.81 0.64 0.78 0.66 0.77 0.68 0.75 0.69 0.73 0.72 0.71 0.73 0.7 0.74 0.67 0.77 0.64 0.77 0.63 0.79 0.6 0.8 0.57 0.81 0.56 0.82 0.52 0.83 0.51 0.84 0.47 0.85 0.45 0.85 0.42 -24.01 50.26 -2.26 -1.12 -2.22 -1.18 -2.19 -1.24 -2.14 -1.29 -2.1 -1.35 -2.05 -1.4 -2.02 -1.45 -1.97 -1.5 -1.92 -1.55 -1.88 -1.6 -1.84 -1.65 -1.79 -1.69 -1.75 -1.74 -1.69 -1.78 -1.65 -1.82 -1.6 -1.87 -1.55 -1.9 -1.5 -1.95 -1.46 -1.98 -1.39 -2.02 -1.35 -2.06 -1.3 -2.09 -1.24 -2.13 -1.18 -2.17 -1.13 -2.2 -1.07 -2.22 -1.02 -2.27 -0.96 -2.29 -0.89 -2.33 -0.84 -2.35 -0.77 -2.38 -0.7 -2.41 0 0zm3.89 -62.27l51.33 21.62 -0.04 0.1 -0.3 0.72 -0.29 0.74 -0.27 0.74 -0.25 0.75 -0.24 0.76 -0.22 0.77 -0.2 0.78 -0.2 0.78 -0.17 0.79 -0.16 0.8 -0.14 0.81 -0.13 0.8 -0.1 0.82 -0.1 0.82 -0.07 0.82 -0.06 0.83 -0.04 0.82 -0.03 0.83 0 0.83 0.01 0.83 0.02 0.83 0.05 0.83 0.06 0.83 0.08 0.83 0.09 0.82 0.12 0.82 0.12 0.82 0.15 0.8 0.16 0.81 0.18 0.8 0.19 0.79 0.21 0.79 -53.65 14.94 -0.52 -1.92 -0.47 -1.93 -0.43 -1.94 -0.39 -1.95 -0.35 -1.95 -0.31 -1.96 -0.27 -1.96 -0.22 -1.96 -0.19 -1.97 -0.15 -1.97 -0.1 -1.98 -0.07 -1.97 -0.02 -1.98 0.02 -1.98 0.05 -1.98 0.1 -1.97 0.14 -1.98 0.18 -1.97 0.22 -1.97 0.27 -1.97 0.3 -1.96 0.35 -1.96 0.39 -1.95 0.42 -1.95 0.48 -1.95 0.51 -1.93 0.56 -1.93 0.6 -1.91 0.64 -1.91 0.69 -1.9 0.73 -1.89 0.77 -1.87 -0.04 0.1zm51.33 21.62l-0.02 0.04 -0.02 0.06 0.04 -0.1zm-5 -69.92l24.11 50.21 -0.22 0.1 -0.77 0.37 -0.76 0.39 -0.75 0.41 -0.75 0.43 -0.74 0.45 -0.73 0.47 -0.73 0.48 -0.71 0.5 -0.71 0.53 -0.69 0.53 -0.69 0.56 -0.67 0.57 -0.66 0.58 -0.65 0.6 -0.63 0.62 -0.62 0.63 -0.61 0.64 -0.58 0.65 -0.58 0.67 -0.56 0.68 -0.54 0.69 -0.53 0.7 -0.5 0.71 -0.49 0.72 -0.47 0.73 -0.46 0.74 -0.43 0.74 -0.42 0.75 -0.39 0.76 -0.38 0.77 -0.35 0.76 -0.34 0.78 -51.33 -21.62 0.87 -1.99 0.91 -1.97 0.95 -1.94 1.01 -1.92 1.04 -1.88 1.08 -1.86 1.13 -1.84 1.17 -1.8 1.2 -1.77 1.25 -1.74 1.28 -1.71 1.32 -1.69 1.35 -1.64 1.39 -1.62 1.43 -1.59 1.46 -1.55 1.5 -1.52 1.53 -1.48 1.56 -1.46 1.6 -1.41 1.63 -1.38 1.66 -1.35 1.69 -1.3 1.72 -1.27 1.75 -1.23 1.78 -1.2 1.81 -1.15 1.84 -1.11 1.87 -1.08 1.9 -1.03 1.92 -0.98 1.95 -0.95 -0.22 0.11zm24.11 50.21l-0.11 0.05 -0.11 0.05 0.22 -0.1zm-10.74 -34.97l55.26 6.98 -26.94 24.35 -0.66 0.02 -0.65 0.02 -0.65 0.03 -0.64 0.04 -0.64 0.05 -0.63 0.05 -0.62 0.06 -0.62 0.06 -0.61 0.07 -0.6 0.08 -0.6 0.08 -0.59 0.09 -0.58 0.1 -0.57 0.1 -0.57 0.1 -0.55 0.12 -0.56 0.12 -0.54 0.12 -0.53 0.13 -0.52 0.14 -0.52 0.14 -0.51 0.15 -0.5 0.15 -0.49 0.16 -0.48 0.16 -0.48 0.17 -0.46 0.18 -0.46 0.18 -0.45 0.18 -0.44 0.19 -0.43 0.2 -0.43 0.2 -24.11 -50.21 1.27 -0.6 1.27 -0.57 1.28 -0.55 1.28 -0.52 1.28 -0.51 1.28 -0.48 1.28 -0.45 1.28 -0.44 1.29 -0.42 1.28 -0.39 1.28 -0.37 1.28 -0.35 1.28 -0.34 1.28 -0.31 1.27 -0.29 1.27 -0.28 1.27 -0.26 1.27 -0.24 1.26 -0.22 1.27 -0.21 1.25 -0.19 1.25 -0.17 1.26 -0.16 1.23 -0.14 1.25 -0.13 1.23 -0.12 1.23 -0.1 1.23 -0.08 1.22 -0.08 1.22 -0.06 1.21 -0.05 1.21 -0.03 -26.94 24.35zm55.26 6.98l-3 23.75 -23.94 0.6 26.94 -24.35zm-15.71 -78.56l35.73 42.72 -0.3 0.25 -0.98 0.81 -0.96 0.85 -0.94 0.87 -0.93 0.89 -0.91 0.92 -0.88 0.95 -0.87 0.97 -0.84 0.99 -0.82 1.01 -0.8 1.03 -0.78 1.06 -0.75 1.07 -0.73 1.1 -0.71 1.11 -0.67 1.13 -0.65 1.14 -0.63 1.16 -0.6 1.17 -0.57 1.19 -0.54 1.19 -0.51 1.22 -0.48 1.22 -0.46 1.22 -0.42 1.24 -0.4 1.24 -0.36 1.26 -0.34 1.25 -0.3 1.26 -0.27 1.26 -0.24 1.27 -0.21 1.27 -0.17 1.27 -55.26 -6.98 0.36 -2.63 0.43 -2.61 0.49 -2.6 0.56 -2.58 0.61 -2.57 0.68 -2.54 0.73 -2.52 0.8 -2.51 0.85 -2.48 0.91 -2.46 0.96 -2.43 1.02 -2.41 1.08 -2.38 1.13 -2.36 1.19 -2.33 1.24 -2.3 1.29 -2.27 1.35 -2.24 1.4 -2.21 1.45 -2.18 1.5 -2.14 1.56 -2.11 1.6 -2.08 1.66 -2.04 1.7 -2 1.75 -1.96 1.81 -1.92 1.85 -1.88 1.9 -1.84 1.95 -1.8 1.99 -1.74 2.05 -1.71 -0.3 0.25zm35.73 42.72l-0.14 0.12 -0.16 0.13 0.3 -0.25zm37.5 -43.03l53.29 16.21 -36.51 17.94 -1.66 -0.6 -1.68 -0.53 -1.7 -0.49 -1.73 -0.42 -1.75 -0.37 -1.77 -0.32 -1.78 -0.25 -1.8 -0.2 -1.82 -0.14 -1.82 -0.08 -1.82 -0.02 -1.83 0.03 -1.83 0.1 -1.83 0.15 -1.83 0.21 -1.81 0.27 -1.8 0.32 -1.79 0.38 -1.78 0.44 -1.75 0.49 -1.74 0.55 -1.71 0.6 -1.68 0.65 -1.65 0.71 -1.62 0.76 -1.58 0.8 -1.55 0.86 -1.52 0.9 -1.47 0.95 -1.44 1 -1.39 1.04 -1.35 1.09 -35.73 -42.72 2.9 -2.34 2.97 -2.23 3.04 -2.11 3.1 -2 3.15 -1.88 3.21 -1.77 3.26 -1.66 3.3 -1.54 3.34 -1.43 3.38 -1.31 3.41 -1.2 3.45 -1.09 3.48 -0.98 3.5 -0.86 3.52 -0.75 3.55 -0.64 3.56 -0.53 3.58 -0.41 3.58 -0.3 3.6 -0.18 3.61 -0.07 3.61 0.05 3.61 0.16 3.61 0.28 3.6 0.39 3.59 0.52 3.59 0.63 3.57 0.75 3.55 0.88 3.54 1 3.5 1.12 3.48 1.25 -36.51 17.94zm53.29 16.21l-8.67 28.49 -27.84 -10.55 36.51 -17.94zm26.2 -110.88l25.59 49.48 -0.28 0.14 -2.26 1.17 -2.22 1.23 -2.19 1.29 -2.17 1.35 -2.13 1.41 -2.1 1.47 -2.06 1.52 -2.03 1.57 -1.99 1.63 -1.95 1.68 -1.91 1.73 -1.87 1.78 -1.83 1.83 -1.78 1.87 -1.74 1.92 -1.69 1.96 -1.64 2 -1.59 2.04 -1.54 2.08 -1.48 2.11 -1.43 2.15 -1.38 2.18 -1.33 2.22 -1.26 2.24 -1.21 2.27 -1.14 2.3 -1.09 2.33 -1.03 2.34 -0.96 2.37 -0.9 2.39 -0.84 2.41 -0.77 2.42 -53.29 -16.21 1.22 -3.82 1.31 -3.78 1.41 -3.74 1.51 -3.69 1.59 -3.65 1.69 -3.61 1.78 -3.56 1.86 -3.51 1.95 -3.45 2.03 -3.41 2.12 -3.35 2.2 -3.3 2.28 -3.24 2.35 -3.19 2.44 -3.12 2.51 -3.06 2.58 -3 2.66 -2.94 2.73 -2.87 2.8 -2.8 2.88 -2.73 2.94 -2.66 3.01 -2.59 3.07 -2.52 3.14 -2.44 3.21 -2.36 3.26 -2.28 3.33 -2.2 3.39 -2.12 3.45 -2.03 3.51 -1.94 3.56 -1.85 -0.28 0.14zm25.59 49.48l-0.14 0.07 -0.14 0.07 0.28 -0.14z"/>
   </g>
  </g>
 </g>
</svg>
