<svg id="user-icon-svg" data-name="Layer 1" xmlns="http://www.w3.org/2000/svg" viewBox="0 0 225 212.03"><title>images</title><path class="user-icon" d="M296.21,290.62a64.36,64.36,0,0,1,72.45,51.75,63.24,63.24,0,0,1-5.77,40.89,64.7,64.7,0,0,1-42.83,33.67,63.29,63.29,0,0,1-37.7-2.64,64.93,64.93,0,0,1-34.87-32.2,64.17,64.17,0,0,1-1.24-53,64.86,64.86,0,0,1,50-38.45ZM199.9,466.22A114.59,114.59,0,0,1,253,406.9a74.41,74.41,0,0,0,105,0,114.83,114.83,0,0,1,46.71,45.93c7,12.53,11.18,26.47,13.26,40.64v1.22c-.69,4.76-5.41,7.8-10,7.29q-103,0-205.94,0a8.7,8.7,0,0,1-9-7.34v-1.26a115.37,115.37,0,0,1,6.9-27.13Z" transform="translate(-193 -290)"/></svg>
